<svg xmlns="http://www.w3.org/2000/svg" width="17" height="16" viewBox="0 0 17 16" fill="none">
<path d="M8.67996 1.94C6.47329 1.94 4.67996 3.73333 4.67996 5.94V7.86667C4.67996 8.27333 4.50662 8.89333 4.29996 9.24L3.53329 10.5133C3.05996 11.3 3.38662 12.1733 4.25329 12.4667C7.12662 13.4267 10.2266 13.4267 13.1 12.4667C13.9066 12.2 14.26 11.2467 13.82 10.5133L13.0533 9.24C12.8533 8.89333 12.68 8.27333 12.68 7.86667V5.94C12.68 3.74 10.88 1.94 8.67996 1.94Z" stroke="#2F80ED" stroke-width="1.5" stroke-miterlimit="10" stroke-linecap="round"/>
<path d="M9.91329 2.13333C9.70662 2.07333 9.49329 2.02667 9.27329 2C8.63329 1.92 8.01996 1.96667 7.44662 2.13333C7.63996 1.64 8.11996 1.29333 8.67996 1.29333C9.23996 1.29333 9.71996 1.64 9.91329 2.13333Z" stroke="#2F80ED" stroke-width="1.5" stroke-miterlimit="10" stroke-linecap="round" stroke-linejoin="round"/>
<path d="M10.68 12.7067C10.68 13.8067 9.77996 14.7067 8.67996 14.7067C8.1333 14.7067 7.62663 14.48 7.26663 14.12C6.90663 13.76 6.67996 13.2533 6.67996 12.7067" stroke="#2F80ED" stroke-width="1.5" stroke-miterlimit="10"/>
</svg>