<svg width="16" height="13" viewBox="0 0 16 13" fill="none" xmlns="http://www.w3.org/2000/svg">
<path id="Vector" d="M14.6666 6.76553H10.6666L9.33325 8.76553H6.66658L5.33325 6.76553H1.33325M14.6666 6.76553V10.7655C14.6666 11.1192 14.5261 11.4583 14.2761 11.7083C14.026 11.9584 13.6869 12.0989 13.3333 12.0989H2.66659C2.31296 12.0989 1.97382 11.9584 1.72378 11.7083C1.47373 11.4583 1.33325 11.1192 1.33325 10.7655V6.76553M14.6666 6.76553L12.3666 2.1722C12.2562 1.95006 12.086 1.76311 11.8752 1.63238C11.6644 1.50166 11.4213 1.43233 11.1733 1.4322H4.82658C4.57853 1.43233 4.33543 1.50166 4.12461 1.63238C3.9138 1.76311 3.74364 1.95006 3.63325 2.1722L1.33325 6.76553" stroke="black" stroke-width="1.33333" stroke-linecap="round" stroke-linejoin="round"/>
</svg>
