<svg width="16" height="16" viewBox="0 0 16 16" fill="none" xmlns="http://www.w3.org/2000/svg">
<path id="Vector" d="M14.1402 10.3604C13.7161 11.3634 13.0527 12.2472 12.2081 12.9346C11.3635 13.622 10.3634 14.092 9.29515 14.3036C8.22692 14.5152 7.12314 14.4619 6.08028 14.1483C5.03743 13.8347 4.08727 13.2705 3.31287 12.5049C2.53846 11.7393 1.9634 10.7956 1.63794 9.75639C1.31249 8.71719 1.24656 7.61408 1.44592 6.54352C1.64528 5.47295 2.10385 4.46751 2.78155 3.61511C3.45925 2.76271 4.33544 2.0893 5.33352 1.65376M14.6669 7.76709C14.6669 6.89161 14.4944 6.02471 14.1594 5.21587C13.8244 4.40703 13.3333 3.6721 12.7142 3.05305C12.0952 2.43399 11.3602 1.94293 10.5514 1.6079C9.74257 1.27286 8.87567 1.10043 8.00019 1.10043V7.76709H14.6669Z" stroke="black" stroke-width="1.33333" stroke-linecap="round" stroke-linejoin="round"/>
</svg>
