<svg width="221" height="181" viewBox="0 0 221 181" fill="none" xmlns="http://www.w3.org/2000/svg">
<path d="M111 63C111 63 113.207 83.5997 121.804 92.1964C130.4 100.793 151 103 151 103C151 103 130.4 105.207 121.804 113.804C113.207 122.4 111 143 111 143C111 143 108.793 122.4 100.196 113.804C91.5997 105.207 71 103 71 103C71 103 91.5997 100.793 100.196 92.1964C108.793 83.5997 111 63 111 63Z" fill="white" fill-opacity="0.25"/>
<path d="M181 111C181 111 183.207 131.6 191.804 140.196C200.4 148.793 221 151 221 151C221 151 200.4 153.207 191.804 161.804C183.207 170.4 181 191 181 191C181 191 178.793 170.4 170.196 161.804C161.6 153.207 141 151 141 151C141 151 161.6 148.793 170.196 140.196C178.793 131.6 181 111 181 111Z" fill="white" fill-opacity="0.1"/>
<path d="M40 140C40 140 42.207 170.385 50.8036 183.065C59.4003 195.745 80 199 80 199C80 199 59.4003 202.255 50.8036 214.935C42.207 227.615 40 258 40 258C40 258 37.793 227.615 29.1964 214.935C20.5997 202.255 0 199 0 199C0 199 20.5997 195.745 29.1964 183.065C37.793 170.385 40 140 40 140Z" fill="white" fill-opacity="0.1"/>
<path d="M171.5 -41C171.5 -41 173.183 -10.6154 179.738 2.06464C186.293 14.7447 202 18 202 18C202 18 186.293 21.2553 179.738 33.9354C173.183 46.6154 171.5 77 171.5 77C171.5 77 169.817 46.6154 163.262 33.9354C156.707 21.2553 141 18 141 18C141 18 156.707 14.7447 163.262 2.06464C169.817 -10.6154 171.5 -41 171.5 -41Z" fill="white" fill-opacity="0.1"/>
<path d="M40.5 38C40.5 38 42.1828 53.4498 48.7378 59.8973C55.2927 66.3447 71 68 71 68C71 68 55.2927 69.6553 48.7378 76.1027C42.1828 82.5502 40.5 98 40.5 98C40.5 98 38.8172 82.5502 32.2622 76.1027C25.7073 69.6553 10 68 10 68C10 68 25.7073 66.3447 32.2622 59.8973C38.8172 53.4498 40.5 38 40.5 38Z" fill="white" fill-opacity="0.1"/>
</svg>
