<svg width="20" height="20" viewBox="0 0 20 20" fill="none" xmlns="http://www.w3.org/2000/svg">
<g id="vuesax/linear/more">
<g id="more">
<path id="Vector" d="M11.6667 4.16667C11.6667 3.25 10.9167 2.5 10 2.5C9.08335 2.5 8.33335 3.25 8.33335 4.16667C8.33335 5.08333 9.08335 5.83333 10 5.83333C10.9167 5.83333 11.6667 5.08333 11.6667 4.16667Z" fill="#202020"/>
<path id="Vector_2" d="M11.6667 15.8333C11.6667 14.9167 10.9167 14.1667 10 14.1667C9.08335 14.1667 8.33335 14.9167 8.33335 15.8333C8.33335 16.75 9.08335 17.5 10 17.5C10.9167 17.5 11.6667 16.75 11.6667 15.8333Z" fill="#202020"/>
<path id="Vector_3" d="M11.6667 10C11.6667 9.08334 10.9167 8.33334 10 8.33334C9.08335 8.33334 8.33335 9.08334 8.33335 10C8.33335 10.9167 9.08335 11.6667 10 11.6667C10.9167 11.6667 11.6667 10.9167 11.6667 10Z" fill="#202020"/>
</g>
</g>
</svg>
