<svg width="15" height="13" viewBox="0 0 15 13" fill="none" xmlns="http://www.w3.org/2000/svg">
<path id="Vector" d="M13.9998 6.22301H9.99984L8.6665 8.22301H5.99984L4.6665 6.22301H0.666504M13.9998 6.22301V10.223C13.9998 10.5766 13.8594 10.9158 13.6093 11.1658C13.3593 11.4159 13.0201 11.5563 12.6665 11.5563H1.99984C1.64622 11.5563 1.30708 11.4159 1.05703 11.1658C0.80698 10.9158 0.666504 10.5766 0.666504 10.223V6.22301M13.9998 6.22301L11.6998 1.62968C11.5895 1.40754 11.4193 1.22059 11.2085 1.08987C10.9977 0.959138 10.7546 0.889811 10.5065 0.889679H4.15984C3.91178 0.889811 3.66868 0.959138 3.45787 1.08987C3.24705 1.22059 3.07689 1.40754 2.9665 1.62968L0.666504 6.22301" stroke="black" stroke-width="1.33333" stroke-linecap="round" stroke-linejoin="round"/>
</svg>
