<svg width="15" height="15" viewBox="0 0 15 15" fill="none" xmlns="http://www.w3.org/2000/svg">
<path id="Vector" d="M13.4733 10.1497C13.0492 11.1527 12.3858 12.0365 11.5412 12.7239C10.6966 13.4113 9.6965 13.8813 8.62827 14.0929C7.56005 14.3044 6.45627 14.2511 5.41341 13.9375C4.37056 13.624 3.4204 13.0597 2.646 12.2941C1.87159 11.5285 1.29653 10.5848 0.971074 9.54565C0.645621 8.50644 0.579692 7.40334 0.779049 6.33277C0.978407 5.2622 1.43698 4.25676 2.11468 3.40437C2.79238 2.55197 3.66857 1.87856 4.66665 1.44301M14 7.55634C14 6.68087 13.8275 5.81396 13.4925 5.00512C13.1575 4.19628 12.6664 3.46136 12.0474 2.8423C11.4283 2.22324 10.6934 1.73218 9.88454 1.39715C9.0757 1.06212 8.2088 0.889679 7.33332 0.889679V7.55634H14Z" stroke="black" stroke-width="1.33333" stroke-linecap="round" stroke-linejoin="round"/>
</svg>
