<svg width="14" height="15" viewBox="0 0 14 15" fill="none" xmlns="http://www.w3.org/2000/svg">
<path id="Vector" d="M8.15333 13.5563C8.03613 13.7584 7.86789 13.9261 7.66548 14.0427C7.46307 14.1593 7.23359 14.2206 7 14.2206C6.76641 14.2206 6.53693 14.1593 6.33452 14.0427C6.1321 13.9261 5.96387 13.7584 5.84667 13.5563M11 4.88968C11 3.82881 10.5786 2.8114 9.82843 2.06125C9.07828 1.31111 8.06087 0.889679 7 0.889679C5.93913 0.889679 4.92172 1.31111 4.17157 2.06125C3.42143 2.8114 3 3.82881 3 4.88968C3 9.55635 1 10.8897 1 10.8897H13C13 10.8897 11 9.55635 11 4.88968Z" stroke="black" stroke-width="1.33333" stroke-linecap="round" stroke-linejoin="round"/>
</svg>
