<svg width="16" height="13" viewBox="0 0 16 13" fill="none" xmlns="http://www.w3.org/2000/svg">
<path d="M14.6666 6.76554H10.6666L9.33331 8.76554H6.66665L5.33331 6.76554H1.33331M14.6666 6.76554V10.7655C14.6666 11.1192 14.5262 11.4583 14.2761 11.7083C14.0261 11.9584 13.6869 12.0989 13.3333 12.0989H2.66665C2.31302 12.0989 1.97389 11.9584 1.72384 11.7083C1.47379 11.4583 1.33331 11.1192 1.33331 10.7655V6.76554M14.6666 6.76554L12.3666 2.17221C12.2563 1.95006 12.0861 1.76312 11.8753 1.63239C11.6645 1.50166 11.4214 1.43234 11.1733 1.43221H4.82665C4.57859 1.43234 4.33549 1.50166 4.12468 1.63239C3.91386 1.76312 3.7437 1.95006 3.63331 2.17221L1.33331 6.76554" stroke="black" stroke-width="1.33333" stroke-linecap="round" stroke-linejoin="round"/>
</svg>
