<svg width="17" height="16" viewBox="0 0 17 16" fill="none" xmlns="http://www.w3.org/2000/svg">
<path d="M8.34667 1.94C6.14001 1.94 4.34667 3.73333 4.34667 5.94V7.86667C4.34667 8.27333 4.17334 8.89333 3.96667 9.24L3.20001 10.5133C2.72667 11.3 3.05334 12.1733 3.92001 12.4667C6.79334 13.4267 9.89334 13.4267 12.7667 12.4667C13.5733 12.2 13.9267 11.2467 13.4867 10.5133L12.72 9.24C12.52 8.89333 12.3467 8.27333 12.3467 7.86667V5.94C12.3467 3.74 10.5467 1.94 8.34667 1.94Z" stroke="#2F80ED" stroke-width="1.5" stroke-miterlimit="10" stroke-linecap="round"/>
<path d="M9.58001 2.13333C9.37334 2.07333 9.16001 2.02667 8.94001 2C8.30001 1.92 7.68668 1.96667 7.11334 2.13333C7.30668 1.64 7.78668 1.29333 8.34668 1.29333C8.90668 1.29333 9.38668 1.64 9.58001 2.13333Z" stroke="#2F80ED" stroke-width="1.5" stroke-miterlimit="10" stroke-linecap="round" stroke-linejoin="round"/>
<path d="M10.3467 12.7067C10.3467 13.8067 9.44668 14.7067 8.34668 14.7067C7.80001 14.7067 7.29335 14.48 6.93335 14.12C6.57335 13.76 6.34668 13.2533 6.34668 12.7067" stroke="#2F80ED" stroke-width="1.5" stroke-miterlimit="10"/>
</svg>
