<svg width="40" height="40" viewBox="0 0 40 40" fill="none" xmlns="http://www.w3.org/2000/svg">
<rect width="40" height="40" rx="20" fill="#2F80ED"/>
<path d="M20.0133 13.94C17.8067 13.94 16.0133 15.7333 16.0133 17.94V19.8667C16.0133 20.2733 15.84 20.8933 15.6333 21.24L14.8667 22.5133C14.3933 23.3 14.72 24.1733 15.5867 24.4667C18.46 25.4267 21.56 25.4267 24.4333 24.4667C25.24 24.2 25.5933 23.2467 25.1533 22.5133L24.3867 21.24C24.1867 20.8933 24.0133 20.2733 24.0133 19.8667V17.94C24.0133 15.74 22.2133 13.94 20.0133 13.94Z" stroke="white" stroke-width="1.5" stroke-miterlimit="10" stroke-linecap="round"/>
<path d="M21.2467 14.1333C21.04 14.0733 20.8267 14.0267 20.6067 14C19.9667 13.92 19.3533 13.9667 18.78 14.1333C18.9733 13.64 19.4533 13.2933 20.0133 13.2933C20.5733 13.2933 21.0533 13.64 21.2467 14.1333Z" stroke="white" stroke-width="1.5" stroke-miterlimit="10" stroke-linecap="round" stroke-linejoin="round"/>
<path d="M22.0133 24.7067C22.0133 25.8067 21.1133 26.7067 20.0133 26.7067C19.4667 26.7067 18.96 26.48 18.6 26.12C18.24 25.76 18.0133 25.2533 18.0133 24.7067" stroke="white" stroke-width="1.5" stroke-miterlimit="10"/>
</svg>
