<svg width="48" height="48" viewBox="0 0 48 48" fill="none" xmlns="http://www.w3.org/2000/svg">
  <rect width="48" height="48" rx="10" fill="#E4ECF7"/>
  <path d="M19.8335 13.6453L19.8541 13.6448L19.856 13.6678L19.8297 13.6687L19.8335 13.6453Z" fill="#0BA25E"/>
  <path d="M19.7532 13.799C19.7715 13.7728 19.8071 13.7203 19.8254 13.694L19.8582 13.6889C19.8826 13.9861 19.9698 14.2725 20.0354 14.5617C20.3176 15.8184 20.6026 17.0742 20.8993 18.3272C21.0939 19.1864 21.3109 20.0414 21.489 20.9039C21.6437 21.4378 21.7267 21.9886 21.8762 22.5234C21.9728 23.0222 22.1242 23.5087 22.2053 24.0103C22.1725 24.0651 22.1396 24.1204 22.1064 24.1753C22.0984 24.1879 22.0815 24.2142 22.0736 24.2273L22.0614 24.2484C22.0595 24.2522 22.0553 24.2601 22.0529 24.2639C22.0346 24.2976 21.9981 24.3647 21.9798 24.3979C21.9765 24.404 21.9695 24.4162 21.9657 24.4223L21.9325 24.4814C21.9282 24.4884 21.9203 24.502 21.9165 24.509L21.8776 24.577C21.8757 24.5808 21.8715 24.5883 21.8692 24.592L21.8209 24.6764C21.8167 24.6834 21.8082 24.6984 21.804 24.7059C21.7993 24.7139 21.79 24.7294 21.7853 24.7373L21.7379 24.8189C21.7342 24.825 21.7267 24.8381 21.7229 24.8442L21.6939 24.8934C21.6892 24.9018 21.6789 24.9192 21.6742 24.9276C21.6554 24.96 21.6184 25.0247 21.5996 25.0575C21.5964 25.0631 21.5893 25.0748 21.5861 25.0809L21.5565 25.1301C21.5518 25.139 21.5415 25.1559 21.5364 25.1648C21.519 25.1953 21.4834 25.2558 21.4661 25.2862C21.4618 25.2933 21.4539 25.3078 21.4496 25.3148L21.4145 25.3781C21.4112 25.3837 21.4046 25.3954 21.4014 25.4011L21.3653 25.4643C21.3615 25.4709 21.354 25.484 21.3503 25.4906C21.3315 25.5215 21.295 25.5839 21.2767 25.6153C21.2725 25.6223 21.264 25.6368 21.2598 25.6443L21.2265 25.7043C21.2232 25.71 21.2171 25.7208 21.2143 25.7264L21.1759 25.7929C21.1726 25.799 21.1656 25.8108 21.1623 25.8164C21.1426 25.8501 21.1037 25.9172 21.084 25.9509C21.0807 25.957 21.0732 25.9692 21.0695 25.9753L21.0414 26.0217C21.0367 26.0301 21.0268 26.0465 21.0221 26.055C21.0043 26.0859 20.9692 26.1473 20.9514 26.1783C20.9486 26.1834 20.942 26.1947 20.9392 26.1998L20.9007 26.2683C20.8979 26.2734 20.8923 26.2833 20.8895 26.2884L20.8501 26.3573C20.8468 26.3625 20.8403 26.3737 20.837 26.3789C20.8187 26.4098 20.7817 26.4708 20.7634 26.5017C20.7582 26.5097 20.7489 26.5265 20.7437 26.535L20.7161 26.5865C20.7123 26.5931 20.7053 26.6062 20.702 26.6123L20.6537 26.6958C20.65 26.7028 20.6415 26.7168 20.6378 26.7239C20.6336 26.7304 20.6261 26.744 20.6223 26.7506C20.5431 26.8842 20.4714 27.022 20.3837 27.1504C19.8845 27.9647 19.4251 28.8042 18.9418 29.6283C18.1571 30.9862 17.3734 32.3442 16.5887 33.7022C16.4711 33.9136 16.337 34.1161 16.2357 34.3368C16.2306 34.3443 16.2203 34.3594 16.2151 34.3668C16.0271 34.0959 15.8818 33.7969 15.7098 33.5156C14.9251 32.1567 14.14 30.7983 13.3557 29.4389C12.9198 28.6743 12.4656 27.9192 12.0414 27.1476C13.7214 24.2484 15.3939 21.344 17.0706 18.4429C17.072 18.4401 17.0753 18.435 17.0767 18.4322L17.1226 18.3534C17.1245 18.3501 17.1282 18.3436 17.1306 18.3403L17.177 18.2611C17.1812 18.254 17.1896 18.239 17.1943 18.232C17.199 18.2236 17.2084 18.2072 17.2131 18.1987L17.2595 18.1162C17.2628 18.1106 17.2693 18.0993 17.2726 18.0937L17.3073 18.0384C17.3134 18.0295 17.3256 18.0112 17.3317 18.0018C17.3486 17.9765 17.3828 17.9254 17.4001 17.9001C17.402 17.8917 17.4053 17.8753 17.4071 17.8673L17.4479 17.789C17.4498 17.7858 17.4536 17.7792 17.4554 17.7759L17.5023 17.6972C17.507 17.6897 17.5164 17.6737 17.5211 17.6658C17.5262 17.6568 17.5365 17.6386 17.5421 17.6292L17.5815 17.5603C17.5857 17.5528 17.5942 17.5383 17.5984 17.5312L17.6312 17.4736C17.635 17.4675 17.6425 17.4543 17.6462 17.4478C17.6645 17.4164 17.7011 17.3536 17.7198 17.3222C17.7236 17.3156 17.7311 17.3025 17.7348 17.2959L17.769 17.2336C17.7718 17.2289 17.7775 17.2186 17.7803 17.2139L17.8253 17.1351C17.8309 17.1258 17.8426 17.1065 17.8487 17.0972L17.8792 17.0512C17.8857 17.0418 17.8984 17.0236 17.905 17.0147C17.9106 17.0053 17.9223 16.9865 17.9284 16.9772L17.9537 16.9284C17.9621 16.9101 17.9795 16.8736 17.9879 16.8553L18.0137 16.8192C18.0184 16.8126 18.0273 16.8 18.032 16.7934C18.0493 16.7789 18.0845 16.7489 18.1018 16.7339L18.0986 16.679C18.1014 16.6725 18.1079 16.6593 18.1112 16.6528L18.1511 16.5736C18.1543 16.5679 18.1609 16.5562 18.1642 16.5506L18.1993 16.4934C18.2059 16.484 18.2186 16.4653 18.2251 16.4559C18.2411 16.4297 18.2734 16.3781 18.2893 16.3523C18.294 16.3429 18.3025 16.3247 18.3071 16.3153L18.332 16.2614C18.3395 16.2473 18.3554 16.2187 18.3634 16.2042L18.3943 16.1601C18.4009 16.1512 18.414 16.1334 18.4206 16.1245C18.4262 16.1151 18.4379 16.0964 18.4436 16.087L18.4665 16.0387C18.4717 16.0279 18.4825 16.0059 18.4876 15.9951L18.5279 15.9173C18.534 15.9079 18.5457 15.8883 18.5514 15.8784L18.5823 15.8325C18.5889 15.8231 18.602 15.8053 18.6086 15.7959C18.6146 15.7865 18.6264 15.7673 18.632 15.7579L18.6559 15.7092C18.6629 15.6956 18.6765 15.6689 18.6831 15.6553L18.715 15.6028C18.7206 15.5939 18.7318 15.5761 18.7379 15.5672C18.7548 15.5409 18.789 15.4884 18.8064 15.4626C18.8082 15.4547 18.8125 15.4387 18.8143 15.4308L18.8551 15.3529C18.8565 15.3497 18.8603 15.3436 18.8621 15.3403L18.909 15.2601C18.9137 15.2522 18.9226 15.2367 18.9273 15.2287C18.932 15.2212 18.9409 15.2053 18.9456 15.1978L18.9925 15.1158C18.9943 15.1125 18.9981 15.1059 19 15.1022L19.044 15.0258C19.0464 15.0225 19.0506 15.0154 19.0525 15.0117L19.0998 14.932C19.104 14.9245 19.1125 14.9104 19.1167 14.9029C19.1214 14.895 19.1307 14.8786 19.1354 14.8701L19.1804 14.7909C19.1832 14.7858 19.1889 14.7759 19.1917 14.7712L19.2296 14.7098C19.2357 14.7009 19.2479 14.6826 19.2536 14.6737C19.2709 14.6479 19.3046 14.5964 19.322 14.5706C19.3234 14.5626 19.3271 14.5467 19.329 14.5387L19.3689 14.4623C19.3721 14.4567 19.3792 14.445 19.3825 14.4389L19.4181 14.3831C19.4246 14.3742 19.4368 14.3559 19.4434 14.3465C19.4598 14.3203 19.4926 14.2683 19.509 14.242C19.5114 14.2345 19.5156 14.2195 19.5179 14.212L19.5592 14.1347C19.5611 14.1309 19.5648 14.1243 19.5667 14.1206L19.6145 14.04C19.6182 14.0329 19.6267 14.0189 19.6309 14.0118C19.6351 14.0039 19.6436 13.9889 19.6478 13.9814L19.6946 13.8979C19.697 13.8947 19.7007 13.8876 19.7026 13.8843L19.7471 13.8089C19.7486 13.8065 19.7518 13.8014 19.7532 13.799Z" fill="#0BA25E"/>
  <path d="M19.8541 13.6448C21.3766 13.6378 22.8996 13.6439 24.4225 13.6415C25.6825 13.6462 26.9435 13.6317 28.203 13.6486C28.2278 13.6964 28.2532 13.7437 28.2799 13.7911C28.2836 13.7972 28.2907 13.8103 28.2944 13.8168C28.4163 14.0292 28.54 14.2406 28.6605 14.4534C28.6629 14.4572 28.6666 14.4642 28.6689 14.4675C28.9024 14.8683 29.1349 15.2695 29.3641 15.6726C29.366 15.6759 29.3702 15.6825 29.3721 15.6862C29.4138 15.7579 29.4569 15.8297 29.4996 15.9018C29.5033 15.9079 29.5103 15.9206 29.5141 15.9272C29.5727 16.0303 29.6318 16.1329 29.6913 16.2356C29.6936 16.2389 29.6974 16.2454 29.6993 16.2492C29.7588 16.3514 29.8174 16.4545 29.8764 16.5576C29.8802 16.5637 29.8872 16.5759 29.891 16.582C29.9505 16.6823 30.0082 16.7836 30.0653 16.8848C30.0691 16.8909 30.0761 16.9036 30.0799 16.9097C30.6396 17.8762 31.1979 18.8433 31.7557 19.8112C31.6919 20.092 31.8461 20.3714 31.7603 20.6536C31.7083 21.4247 31.4172 22.1751 30.9372 22.7808C30.7811 22.95 30.9325 23.1848 30.9157 23.3854C30.7474 23.5893 30.5308 23.7417 30.3264 23.9062C30.3269 24.06 30.3274 24.2137 30.3203 24.3679C30.138 24.4884 29.9289 24.5583 29.7438 24.6745C29.7241 24.7369 29.7039 24.7997 29.6847 24.8629C29.5361 24.9333 29.3772 24.9787 29.2286 25.05C28.6404 24.8812 28.0582 24.6933 27.4713 24.5193C26.9252 24.3389 26.366 24.1973 25.8255 23.9986L25.7946 23.9433C25.7918 23.939 25.7871 23.9306 25.7847 23.9264L25.7402 23.8509C25.7355 23.8429 25.7261 23.827 25.7214 23.819C25.7172 23.812 25.7097 23.7984 25.7055 23.7914C25.6722 23.7323 25.6418 23.6719 25.6146 23.61L25.6118 23.6039L25.6085 23.5992C25.5878 23.5664 25.5461 23.5003 25.525 23.4675C25.5227 23.4637 25.518 23.4562 25.5157 23.452L25.5021 23.4304C25.4941 23.4169 25.4777 23.3901 25.4697 23.3765C25.4496 23.3423 25.4088 23.2739 25.3886 23.2397C25.3835 23.2312 25.3736 23.2139 25.3685 23.2054L25.3399 23.1567C25.3361 23.1501 25.3286 23.1375 25.3249 23.1309L25.2794 23.0526C25.2775 23.0493 25.2733 23.0428 25.2714 23.039L25.2236 22.957C25.2194 22.9495 25.211 22.9345 25.2068 22.9275C25.2021 22.919 25.1922 22.9017 25.1875 22.8933L25.1486 22.8248C25.1439 22.8168 25.1346 22.8 25.1299 22.792L25.0999 22.739C25.0957 22.732 25.0877 22.7179 25.0835 22.7109C25.0652 22.6772 25.0282 22.6101 25.0094 22.5764C25.0075 22.5726 25.0028 22.5647 25.001 22.5609L24.9883 22.5389C24.9794 22.5258 24.9621 22.4995 24.9532 22.4864C24.9068 22.4086 24.8632 22.3289 24.8214 22.2487C24.8191 22.245 24.8149 22.237 24.813 22.2333L24.8008 22.2117C24.7919 22.199 24.7741 22.1737 24.7652 22.1615C24.7446 22.1245 24.7033 22.0504 24.6827 22.0134C24.6803 22.0097 24.6757 22.0017 24.6738 21.9975L24.6611 21.975C24.6518 21.9595 24.6335 21.929 24.6241 21.9136L24.5838 21.8456C24.58 21.839 24.5721 21.8259 24.5678 21.8189C24.55 21.7879 24.5139 21.7256 24.4957 21.6947C24.4914 21.6876 24.4835 21.6731 24.4793 21.6656C24.4474 21.6126 24.4169 21.5592 24.3869 21.5058C24.3846 21.5015 24.3794 21.4931 24.3771 21.4889L24.3325 21.4125C24.3279 21.405 24.3189 21.39 24.3147 21.382C24.3105 21.375 24.3025 21.3609 24.2983 21.3539L24.251 21.2714C24.2486 21.2676 24.2444 21.2597 24.2421 21.2559L24.2036 21.187C24.2003 21.1814 24.1943 21.1706 24.191 21.165C24.1732 21.1336 24.1371 21.0712 24.1193 21.0398C24.1155 21.0333 24.108 21.0206 24.1043 21.0145C24.0752 20.9662 24.0461 20.9175 24.018 20.8692C22.7182 18.6136 21.4164 16.3593 20.1138 14.1051C20.0322 13.9645 19.9581 13.8183 19.8582 13.6889L19.856 13.6678L19.8541 13.6448Z" fill="#FCCD48"/>
  <path d="M19.8297 13.6687L19.856 13.6678L19.8582 13.6889L19.8254 13.694L19.8297 13.6687Z" fill="#089156"/>
  <path d="M19.8582 13.6889C19.9581 13.8183 20.0322 13.9645 20.1138 14.1051C21.4164 16.3593 22.7182 18.6136 24.018 20.8692C23.4161 21.9173 22.8095 22.9631 22.2053 24.0103C22.1242 23.5087 21.9728 23.0222 21.8762 22.5234C21.7267 21.9886 21.6437 21.4378 21.489 20.9039C21.3109 20.0414 21.0939 19.1864 20.8993 18.3272C20.6026 17.0742 20.3176 15.8184 20.0354 14.5617C19.9698 14.2725 19.8826 13.9861 19.8582 13.6889Z" fill="#089156"/>
  <path d="M18.032 16.7934C18.0484 16.7648 18.0817 16.7076 18.0986 16.679L18.1018 16.7339C18.0845 16.7489 18.0493 16.7789 18.032 16.7934Z" fill="#089156"/>
  <path d="M31.7557 19.8112C32.5708 21.2236 33.3909 22.6336 34.1995 24.0501C34.2033 24.0562 34.2108 24.0694 34.2145 24.0754C34.2333 24.1064 34.2708 24.1678 34.289 24.1983C34.2928 24.2044 34.3003 24.217 34.304 24.2231L34.3415 24.2873C34.3439 24.2915 34.3486 24.3004 34.3514 24.3047L34.3983 24.3862C34.4029 24.3942 34.4118 24.4106 34.4165 24.4186C34.4208 24.4256 34.4292 24.4401 34.4334 24.4476L34.4794 24.5273C34.4812 24.5306 34.485 24.5372 34.4869 24.5404L34.5328 24.6192C34.5347 24.6225 34.5384 24.6286 34.5403 24.6319L34.5862 24.7115C34.5909 24.7195 34.5998 24.735 34.6045 24.7429C34.6087 24.7509 34.6176 24.7664 34.6219 24.7739L34.6692 24.8573C34.6758 24.8737 34.6889 24.9056 34.6954 24.9215L34.7086 24.9473L34.7147 24.9609L34.725 24.9745L34.7526 25.0162C34.7625 25.0317 34.7817 25.0626 34.7915 25.0781C34.7972 25.0875 34.8094 25.1062 34.815 25.1156L34.8459 25.1648C34.8553 25.1859 34.874 25.2286 34.8834 25.2497L34.8975 25.275L34.9026 25.2848L34.9069 25.2909C34.9275 25.3214 34.9683 25.3828 34.9889 25.4133C34.994 25.4217 35.0044 25.4386 35.01 25.447L35.0381 25.4939C35.0423 25.5014 35.0508 25.5159 35.055 25.5229L35.1023 25.6059C35.1065 25.6134 35.115 25.6284 35.1192 25.6359C35.1234 25.6434 35.1319 25.6579 35.1361 25.6654L35.1829 25.7456C35.1848 25.7494 35.189 25.7564 35.1914 25.7597L35.234 25.8347C35.2369 25.8394 35.2425 25.8492 35.2453 25.8539L35.2884 25.9294C35.2936 25.9378 35.3034 25.9551 35.3086 25.9636C35.3128 25.9711 35.3217 25.9861 35.3259 25.9936C35.3606 26.0512 35.3939 26.1098 35.4248 26.1698C35.4295 26.1797 35.4389 26.1994 35.4431 26.2092L35.4647 26.2579C35.4703 26.2673 35.4815 26.2865 35.4867 26.2959C35.4937 26.3053 35.5073 26.3231 35.5144 26.332L35.5467 26.3779C35.5523 26.3869 35.5636 26.4047 35.5697 26.414L35.617 26.4961C35.6212 26.5036 35.6297 26.5186 35.6339 26.5261C35.6381 26.5336 35.6465 26.5481 35.6512 26.5556L35.6981 26.6362C35.7 26.64 35.7037 26.6465 35.7056 26.6498L35.7501 26.7276C35.752 26.7309 35.7558 26.737 35.7576 26.7403L35.8031 26.8195C35.8078 26.8275 35.8172 26.8434 35.8219 26.8519C35.8265 26.8598 35.8359 26.8758 35.8401 26.8837L35.887 26.9643C35.8889 26.9676 35.8922 26.9742 35.894 26.9775L35.9437 27.0703L35.9433 27.1125C34.7704 26.7754 33.6164 26.3756 32.4403 26.0508C31.3729 25.7062 30.296 25.3926 29.2286 25.05C29.3772 24.9787 29.5361 24.9333 29.6847 24.8629C29.7039 24.7997 29.7241 24.7369 29.7438 24.6745C29.9289 24.5583 30.138 24.4884 30.3203 24.3679C30.3274 24.2137 30.3269 24.06 30.3264 23.9062C30.5308 23.7417 30.7474 23.5893 30.9157 23.3854C30.9325 23.1848 30.7811 22.95 30.9372 22.7808C31.4172 22.1751 31.7083 21.4247 31.7603 20.6536C31.8461 20.3714 31.6919 20.092 31.7557 19.8112Z" fill="#F9C941"/>
  <path d="M35.9433 27.1125L35.9676 27.1134L35.9812 27.149L35.9536 27.1509L35.9433 27.1125Z" fill="#F9C941"/>
  <path d="M25.6085 23.5992L25.6118 23.6039L25.6146 23.61C25.6132 23.6072 25.6099 23.602 25.6085 23.5992Z" fill="#E3B73A"/>
  <path d="M25.8255 23.9986C26.366 24.1973 26.9252 24.3389 27.4713 24.5193C28.0582 24.6933 28.6404 24.8812 29.2286 25.05C30.296 25.3926 31.3729 25.7062 32.4403 26.0508C32.4244 26.279 32.469 26.513 32.4122 26.7371C32.3686 26.955 32.108 26.9892 32.0007 27.1632C30.5583 27.1636 29.1165 27.1678 27.6746 27.1617L27.6437 27.1594C27.0479 26.1 26.4288 25.0537 25.8255 23.9986Z" fill="#E3B73A"/>
  <path d="M34.7086 24.9473C34.7128 24.9544 34.7208 24.9679 34.725 24.9745L34.7147 24.9609L34.7086 24.9473Z" fill="#E8B835"/>
  <path d="M34.8975 25.275C34.8998 25.2792 34.9045 25.2872 34.9069 25.2909L34.9026 25.2848L34.8975 25.275Z" fill="#E8B835"/>
  <path d="M32.4403 26.0508C33.6164 26.3756 34.7704 26.7754 35.9433 27.1125L35.9536 27.1509C34.6369 27.1809 33.3179 27.1561 32.0007 27.1632C32.108 26.9892 32.3686 26.955 32.4122 26.7371C32.469 26.513 32.4244 26.279 32.4403 26.0508Z" fill="#E8B835"/>
  <path d="M35.9437 27.0703C35.9498 27.0811 35.9615 27.1026 35.9676 27.1134L35.9433 27.1125L35.9437 27.0703Z" fill="#E8B835"/>
  <path d="M18.9418 29.6283C19.4251 28.8042 19.8845 27.9647 20.3837 27.1504C22.8039 27.1593 25.224 27.1369 27.6437 27.1594L27.6746 27.1617C26.4507 27.2011 25.2241 27.1514 24.0001 27.1823C23.7667 27.3328 23.6111 27.5765 23.3875 27.7406C23.1798 27.892 23.027 28.1029 22.8287 28.2647C22.5508 28.4695 22.344 28.7536 22.0619 28.9542C21.7356 29.2997 21.3592 29.5908 21.0301 29.9344C20.7836 30.1237 20.5773 30.3576 20.3476 30.5662C20.095 30.7495 19.9014 30.9979 19.6651 31.2005C19.659 31.2056 19.6473 31.2159 19.6412 31.2215C19.6286 31.2314 19.6037 31.252 19.5911 31.2619C19.585 31.267 19.5737 31.2764 19.5676 31.2815C19.3815 31.4255 19.239 31.6153 19.0562 31.763C19.0501 31.7681 19.0384 31.778 19.0328 31.7826C19.0267 31.7878 19.015 31.7976 19.0089 31.8023C18.7422 32.0212 18.5284 32.2983 18.2486 32.5022C17.9669 32.7815 17.649 33.0215 17.3814 33.3159C16.9858 33.6412 16.6436 34.0251 16.2357 34.3368C16.337 34.1161 16.4711 33.9136 16.5887 33.7022C17.3734 32.3442 18.1571 30.9862 18.9418 29.6283Z" fill="#296AD9"/>
  <path d="M16.2151 34.3668C16.2203 34.3594 16.2306 34.3443 16.2357 34.3368L16.2343 34.3673L16.2151 34.3668Z" fill="#296AD9"/>
  <path d="M27.6746 27.1617C29.1165 27.1678 30.5583 27.1636 32.0007 27.1632C33.3179 27.1561 34.6369 27.1809 35.9536 27.1509L35.9812 27.149L35.9999 27.1543V27.158C34.6096 29.5613 33.2235 31.9674 31.8332 34.3711C26.6334 34.3697 21.4337 34.3758 16.2343 34.3673L16.2357 34.3368C16.6436 34.0251 16.9858 33.6412 17.3814 33.3159C17.649 33.0215 17.9669 32.7815 18.2486 32.5022C18.5284 32.2983 18.7422 32.0212 19.0089 31.8023C19.015 31.7976 19.0267 31.7878 19.0328 31.7826C19.0384 31.778 19.0501 31.7681 19.0562 31.763C19.239 31.6153 19.3815 31.4255 19.5676 31.2815C19.5737 31.2764 19.585 31.267 19.5911 31.2619C19.6037 31.252 19.6286 31.2314 19.6412 31.2215C19.6473 31.2159 19.659 31.2056 19.6651 31.2005C19.9014 30.9979 20.095 30.7495 20.3476 30.5662C20.5773 30.3576 20.7836 30.1237 21.0301 29.9344C21.3592 29.5908 21.7356 29.2997 22.0619 28.9542C22.344 28.7536 22.5508 28.4695 22.8287 28.2647C23.027 28.1029 23.1798 27.892 23.3875 27.7406C23.6111 27.5765 23.7667 27.3328 24.0001 27.1823C25.2241 27.1514 26.4507 27.2011 27.6746 27.1617Z" fill="#2A71E9"/>
</svg>
