<svg width="31" height="25" viewBox="0 0 31 25" fill="none" xmlns="http://www.w3.org/2000/svg">
<rect width="31" height="25" fill="#F5F5F5"/>
<g id="biblioteca" clip-path="url(#clip0_0_1)">
<rect width="1440" height="2590" transform="translate(-1016 -1942)" fill="white"/>
<g id="Group 42">
<rect id="Rectangle 337" x="-79.75" y="-200.75" width="383.5" height="239.5" rx="4.75" stroke="#8A9399" stroke-width="0.5"/>
<g id="Frame 33">
<g id="Group 36">
<g id="Leia mais">
<path d="M-60.267 15.6802V5.49836H-59.0341V14.5864H-54.3011V15.6802H-60.267ZM-49.3494 15.8393C-50.0852 15.8393 -50.7199 15.6769 -51.2536 15.3521C-51.7839 15.0239 -52.1932 14.5665 -52.4815 13.9799C-52.7666 13.3899 -52.9091 12.7039 -52.9091 11.9217C-52.9091 11.1395 -52.7666 10.4501 -52.4815 9.85347C-52.1932 9.25357 -51.7921 8.78624 -51.2784 8.45148C-50.7614 8.11341 -50.1581 7.94438 -49.4688 7.94438C-49.071 7.94438 -48.6783 8.01067 -48.2905 8.14324C-47.9027 8.27582 -47.5497 8.49126 -47.2315 8.78955C-46.9134 9.08453 -46.6598 9.47563 -46.4709 9.96285C-46.282 10.4501 -46.1875 11.05 -46.1875 11.7626V12.2597H-52.0739V11.2455H-47.3807C-47.3807 10.8146 -47.4669 10.4302 -47.6392 10.0921C-47.8082 9.75404 -48.0502 9.48723 -48.3651 9.29168C-48.6766 9.09613 -49.0445 8.99836 -49.4688 8.99836C-49.9361 8.99836 -50.3404 9.11436 -50.6818 9.34637C-51.0199 9.57506 -51.2801 9.87336 -51.4624 10.2413C-51.6446 10.6092 -51.7358 11.0036 -51.7358 11.4245V12.1006C-51.7358 12.6773 -51.6364 13.1662 -51.4375 13.5672C-51.2353 13.965 -50.9553 14.2682 -50.5973 14.4771C-50.2393 14.6825 -49.8234 14.7853 -49.3494 14.7853C-49.0412 14.7853 -48.7628 14.7422 -48.5142 14.656C-48.2623 14.5665 -48.0452 14.434 -47.8629 14.2583C-47.6806 14.0793 -47.5398 13.8573 -47.4403 13.5921L-46.3068 13.9103C-46.4261 14.2948 -46.6267 14.6328 -46.9084 14.9245C-47.1901 15.2128 -47.5381 15.4382 -47.9524 15.6006C-48.3667 15.7597 -48.8324 15.8393 -49.3494 15.8393ZM-44.4027 15.6802V8.04381H-43.2294V15.6802H-44.4027ZM-43.8061 6.77109C-44.0348 6.77109 -44.232 6.6932 -44.3977 6.53742C-44.5601 6.38164 -44.6413 6.19438 -44.6413 5.97563C-44.6413 5.75688 -44.5601 5.56962 -44.3977 5.41384C-44.232 5.25806 -44.0348 5.18018 -43.8061 5.18018C-43.5774 5.18018 -43.3819 5.25806 -43.2195 5.41384C-43.0537 5.56962 -42.9709 5.75688 -42.9709 5.97563C-42.9709 6.19438 -43.0537 6.38164 -43.2195 6.53742C-43.3819 6.6932 -43.5774 6.77109 -43.8061 6.77109ZM-38.8333 15.8592C-39.3172 15.8592 -39.7563 15.768 -40.1507 15.5857C-40.5452 15.4001 -40.8584 15.1333 -41.0904 14.7853C-41.3224 14.434 -41.4384 14.0097 -41.4384 13.5126C-41.4384 13.0751 -41.3522 12.7204 -41.1799 12.4486C-41.0075 12.1735 -40.7772 11.9581 -40.4888 11.8023C-40.2005 11.6466 -39.8823 11.5306 -39.5343 11.4543C-39.1829 11.3748 -38.83 11.3118 -38.4753 11.2654C-38.0113 11.2057 -37.6351 11.161 -37.3468 11.1312C-37.0551 11.098 -36.843 11.0433 -36.7104 10.9671C-36.5745 10.8909 -36.5066 10.7583 -36.5066 10.5694V10.5296C-36.5066 10.0391 -36.6408 9.65792 -36.9093 9.38614C-37.1744 9.11436 -37.5771 8.97847 -38.1174 8.97847C-38.6775 8.97847 -39.1167 9.1011 -39.4348 9.34637C-39.753 9.59163 -39.9767 9.85347 -40.106 10.1319L-41.2196 9.73415C-41.0208 9.27014 -40.7556 8.90887 -40.4242 8.65035C-40.0894 8.38851 -39.7248 8.20622 -39.3304 8.10347C-38.9327 7.99741 -38.5416 7.94438 -38.1571 7.94438C-37.9119 7.94438 -37.6301 7.97421 -37.312 8.03387C-36.9905 8.09021 -36.6806 8.20787 -36.3823 8.38685C-36.0807 8.56583 -35.8304 8.83595 -35.6316 9.19722C-35.4327 9.55849 -35.3333 10.0424 -35.3333 10.6489V15.6802H-36.5066V14.6461H-36.5662C-36.6458 14.8118 -36.7783 14.9891 -36.964 15.178C-37.1496 15.367 -37.3965 15.5277 -37.7047 15.6603C-38.013 15.7929 -38.3891 15.8592 -38.8333 15.8592ZM-38.6543 14.8052C-38.1903 14.8052 -37.7992 14.714 -37.481 14.5317C-37.1595 14.3494 -36.9176 14.1141 -36.7551 13.8258C-36.5894 13.5374 -36.5066 13.2342 -36.5066 12.916V11.8421C-36.5563 11.9018 -36.6657 11.9565 -36.8347 12.0062C-37.0004 12.0526 -37.1926 12.094 -37.4114 12.1305C-37.6268 12.1636 -37.8373 12.1934 -38.0428 12.2199C-38.245 12.2431 -38.409 12.263 -38.535 12.2796C-38.8399 12.3194 -39.1249 12.384 -39.3901 12.4735C-39.6519 12.5597 -39.8641 12.6906 -40.0265 12.8663C-40.1855 13.0386 -40.2651 13.2739 -40.2651 13.5722C-40.2651 13.9799 -40.1143 14.2881 -39.8127 14.4969C-39.5078 14.7024 -39.1216 14.8052 -38.6543 14.8052ZM-29.2543 15.6802V8.04381H-28.1207V9.23699H-28.0213C-27.8622 8.82932 -27.6054 8.5128 -27.2507 8.28742C-26.8961 8.05873 -26.4702 7.94438 -25.973 7.94438C-25.4692 7.94438 -25.05 8.05873 -24.7152 8.28742C-24.3771 8.5128 -24.1136 8.82932 -23.9247 9.23699H-23.8452C-23.6496 8.84258 -23.3563 8.52937 -22.9652 8.29736C-22.5741 8.06204 -22.1051 7.94438 -21.5582 7.94438C-20.8755 7.94438 -20.317 8.15816 -19.8828 8.58572C-19.4486 9.00996 -19.2315 9.67118 -19.2315 10.5694V15.6802H-20.4048V10.5694C-20.4048 10.0059 -20.5589 9.60323 -20.8672 9.36128C-21.1754 9.11933 -21.5384 8.99836 -21.956 8.99836C-22.4929 8.99836 -22.9089 9.16076 -23.2038 9.48557C-23.4988 9.80707 -23.6463 10.2147 -23.6463 10.7086V15.6802H-24.8395V10.4501C-24.8395 10.0159 -24.9804 9.66621 -25.2621 9.40106C-25.5438 9.13259 -25.9067 8.99836 -26.3509 8.99836C-26.6558 8.99836 -26.9408 9.07956 -27.206 9.24197C-27.4678 9.40437 -27.6799 9.62975 -27.8423 9.9181C-28.0014 10.2031 -28.081 10.5329 -28.081 10.9074V15.6802H-29.2543ZM-14.8391 15.8592C-15.323 15.8592 -15.7622 15.768 -16.1566 15.5857C-16.551 15.4001 -16.8642 15.1333 -17.0962 14.7853C-17.3282 14.434 -17.4442 14.0097 -17.4442 13.5126C-17.4442 13.0751 -17.3581 12.7204 -17.1857 12.4486C-17.0134 12.1735 -16.783 11.9581 -16.4947 11.8023C-16.2063 11.6466 -15.8881 11.5306 -15.5401 11.4543C-15.1888 11.3748 -14.8358 11.3118 -14.4812 11.2654C-14.0172 11.2057 -13.641 11.161 -13.3526 11.1312C-13.061 11.098 -12.8488 11.0433 -12.7163 10.9671C-12.5804 10.8909 -12.5124 10.7583 -12.5124 10.5694V10.5296C-12.5124 10.0391 -12.6467 9.65792 -12.9151 9.38614C-13.1803 9.11436 -13.583 8.97847 -14.1232 8.97847C-14.6834 8.97847 -15.1225 9.1011 -15.4407 9.34637C-15.7589 9.59163 -15.9826 9.85347 -16.1119 10.1319L-17.2255 9.73415C-17.0266 9.27014 -16.7615 8.90887 -16.43 8.65035C-16.0953 8.38851 -15.7307 8.20622 -15.3363 8.10347C-14.9386 7.99741 -14.5475 7.94438 -14.163 7.94438C-13.9177 7.94438 -13.636 7.97421 -13.3178 8.03387C-12.9963 8.09021 -12.6864 8.20787 -12.3881 8.38685C-12.0865 8.56583 -11.8363 8.83595 -11.6374 9.19722C-11.4386 9.55849 -11.3391 10.0424 -11.3391 10.6489V15.6802H-12.5124V14.6461H-12.5721C-12.6516 14.8118 -12.7842 14.9891 -12.9698 15.178C-13.1554 15.367 -13.4023 15.5277 -13.7106 15.6603C-14.0188 15.7929 -14.395 15.8592 -14.8391 15.8592ZM-14.6602 14.8052C-14.1961 14.8052 -13.805 14.714 -13.4869 14.5317C-13.1654 14.3494 -12.9234 14.1141 -12.761 13.8258C-12.5953 13.5374 -12.5124 13.2342 -12.5124 12.916V11.8421C-12.5621 11.9018 -12.6715 11.9565 -12.8406 12.0062C-13.0063 12.0526 -13.1985 12.094 -13.4173 12.1305C-13.6327 12.1636 -13.8432 12.1934 -14.0487 12.2199C-14.2508 12.2431 -14.4149 12.263 -14.5408 12.2796C-14.8458 12.3194 -15.1308 12.384 -15.396 12.4735C-15.6578 12.5597 -15.8699 12.6906 -16.0323 12.8663C-16.1914 13.0386 -16.271 13.2739 -16.271 13.5722C-16.271 13.9799 -16.1201 14.2881 -15.8185 14.4969C-15.5136 14.7024 -15.1275 14.8052 -14.6602 14.8052ZM-9.19762 15.6802V8.04381H-8.02433V15.6802H-9.19762ZM-8.60103 6.77109C-8.82972 6.77109 -9.02693 6.6932 -9.19265 6.53742C-9.35505 6.38164 -9.43626 6.19438 -9.43626 5.97563C-9.43626 5.75688 -9.35505 5.56962 -9.19265 5.41384C-9.02693 5.25806 -8.82972 5.18018 -8.60103 5.18018C-8.37234 5.18018 -8.17679 5.25806 -8.01438 5.41384C-7.84866 5.56962 -7.7658 5.75688 -7.7658 5.97563C-7.7658 6.19438 -7.84866 6.38164 -8.01438 6.53742C-8.17679 6.6932 -8.37234 6.77109 -8.60103 6.77109ZM-0.466264 9.75404L-1.52024 10.0523C-1.58653 9.87667 -1.6843 9.70598 -1.81357 9.54026C-1.93951 9.37123 -2.11186 9.23202 -2.33061 9.12265C-2.54936 9.01327 -2.82943 8.95858 -3.17081 8.95858C-3.63814 8.95858 -4.02758 9.0663 -4.33913 9.28174C-4.64737 9.49386 -4.80149 9.76398 -4.80149 10.0921C-4.80149 10.3838 -4.69543 10.6141 -4.48331 10.7832C-4.27119 10.9522 -3.93975 11.0931 -3.48899 11.2057L-2.35547 11.4842C-1.6727 11.6499 -1.16394 11.9034 -0.82919 12.2448C-0.494436 12.5829 -0.32706 13.0187 -0.32706 13.5523C-0.32706 13.9898 -0.453006 14.3809 -0.7049 14.7256C-0.95348 15.0703 -1.30149 15.3421 -1.74893 15.541C-2.19638 15.7398 -2.71674 15.8393 -3.31001 15.8393C-4.0889 15.8393 -4.73355 15.6702 -5.24396 15.3322C-5.75438 14.9941 -6.07753 14.5003 -6.21342 13.8506L-5.09979 13.5722C-4.99373 13.9832 -4.79321 14.2914 -4.49822 14.4969C-4.19993 14.7024 -3.81049 14.8052 -3.3299 14.8052C-2.78303 14.8052 -2.34884 14.6892 -2.02734 14.4572C-1.70253 14.2218 -1.54013 13.9401 -1.54013 13.612C-1.54013 13.3468 -1.63293 13.1248 -1.81854 12.9458C-2.00414 12.7635 -2.28918 12.6276 -2.67365 12.5381L-3.94638 12.2398C-4.64571 12.0741 -5.15945 11.8172 -5.48757 11.4692C-5.81238 11.1179 -5.97479 10.6788 -5.97479 10.1518C-5.97479 9.7209 -5.85381 9.33974 -5.61186 9.0083C-5.3666 8.67686 -5.0335 8.41668 -4.61257 8.22776C-4.18833 8.03884 -3.70774 7.94438 -3.17081 7.94438C-2.41513 7.94438 -1.82185 8.1101 -1.39098 8.44154C-0.956794 8.77298 -0.648556 9.21048 -0.466264 9.75404Z" fill="#2F80ED"/>
<path d="M-61.5 18.4643H0.368965V19.4188H-61.5V18.4643Z" fill="#2F80ED"/>
</g>
<g id="arrow-right" clip-path="url(#clip1_0_1)">
<path id="Vector" d="M10.5 12.6802L11.5 12.6802" stroke="#56CCF2" stroke-width="2" stroke-linecap="round" stroke-linejoin="round"/>
<path id="Vector_2" d="M22.5 5.68018L29.5 12.6802L22.5 19.6802" stroke="#2D9CDB" stroke-width="2" stroke-linecap="round" stroke-linejoin="round"/>
<path id="Vector_3" d="M18.5 8.68018L22.5 12.6802L18.5 16.6802" stroke="#2F80ED" stroke-width="1.5" stroke-linecap="round" stroke-linejoin="round"/>
<path id="Vector_4" d="M14.5 10.6802L16.5 12.6802L14.5 14.6802" stroke="#56CCF2" stroke-linecap="round" stroke-linejoin="round"/>
</g>
</g>
</g>
</g>
</g>
<defs>
<clipPath id="clip0_0_1">
<rect width="1440" height="2590" fill="white" transform="translate(-1016 -1942)"/>
</clipPath>
<clipPath id="clip1_0_1">
<rect width="30" height="24" fill="white" transform="translate(0.5 0.680176)"/>
</clipPath>
</defs>
</svg>
