<svg width="24" height="24" viewBox="0 0 24 24" fill="none" xmlns="http://www.w3.org/2000/svg">
<path d="M7.83349 1.64529L7.85412 1.64482L7.85599 1.66779L7.82974 1.66873L7.83349 1.64529Z" fill="#0BA25E"/>
<path d="M7.75324 1.79904C7.77152 1.77279 7.80715 1.72029 7.82543 1.69404L7.85824 1.68888C7.88262 1.98607 7.9698 2.27247 8.03543 2.56169C8.31762 3.81841 8.60262 5.07419 8.89934 6.32716C9.09387 7.18638 9.3109 8.04138 9.48902 8.90388C9.64371 9.43779 9.72668 9.98857 9.87621 10.5234C9.97277 11.0222 10.1242 11.5087 10.2053 12.0103C10.1725 12.0651 10.1396 12.1204 10.1064 12.1753C10.0984 12.1879 10.0815 12.2142 10.0736 12.2273L10.0614 12.2484C10.0595 12.2522 10.0553 12.2601 10.0529 12.2639C10.0346 12.2976 9.99809 12.3647 9.9798 12.3979C9.97652 12.404 9.96949 12.4162 9.96574 12.4223L9.93246 12.4814C9.92824 12.4884 9.92027 12.502 9.91652 12.509L9.87762 12.577C9.87574 12.5808 9.87152 12.5883 9.86918 12.592L9.8209 12.6764C9.81668 12.6834 9.80824 12.6984 9.80402 12.7059C9.79933 12.7139 9.78996 12.7294 9.78527 12.7373L9.73793 12.8189C9.73418 12.825 9.72668 12.8381 9.72293 12.8442L9.69387 12.8934C9.68918 12.9018 9.67887 12.9192 9.67418 12.9276C9.65543 12.96 9.6184 13.0247 9.59965 13.0575C9.59637 13.0631 9.58934 13.0748 9.58605 13.0809L9.55652 13.1301C9.55184 13.139 9.54152 13.1559 9.53637 13.1648C9.51902 13.1953 9.4834 13.2558 9.46605 13.2862C9.46183 13.2933 9.45387 13.3078 9.44965 13.3148L9.41449 13.3781C9.41121 13.3837 9.40465 13.3954 9.40137 13.4011L9.36527 13.4643C9.36152 13.4709 9.35402 13.484 9.35027 13.4906C9.33152 13.5215 9.29496 13.5839 9.27668 13.6153C9.27246 13.6223 9.26402 13.6368 9.2598 13.6443L9.22652 13.7043C9.22324 13.71 9.21715 13.7208 9.21434 13.7264L9.1759 13.7929C9.17262 13.799 9.16559 13.8108 9.1623 13.8164C9.14262 13.8501 9.10371 13.9172 9.08402 13.9509C9.08074 13.957 9.07324 13.9692 9.06949 13.9753L9.04137 14.0217C9.03668 14.0301 9.02684 14.0465 9.02215 14.055C9.00434 14.0859 8.96918 14.1473 8.95137 14.1783C8.94855 14.1834 8.94199 14.1947 8.93918 14.1998L8.90074 14.2683C8.89793 14.2734 8.8923 14.2833 8.88949 14.2884L8.85012 14.3573C8.84684 14.3625 8.84027 14.3737 8.83699 14.3789C8.81871 14.4098 8.78168 14.4708 8.7634 14.5017C8.75824 14.5097 8.74887 14.5265 8.74371 14.535L8.71605 14.5865C8.7123 14.5931 8.70527 14.6062 8.70199 14.6123L8.65371 14.6958C8.64996 14.7028 8.64152 14.7168 8.63777 14.7239C8.63355 14.7304 8.62605 14.744 8.6223 14.7506C8.54309 14.8842 8.47137 15.022 8.38371 15.1504C7.88449 15.9647 7.42512 16.8042 6.94183 17.6283C6.15715 18.9862 5.3734 20.3442 4.58871 21.7022C4.47105 21.9136 4.33699 22.1161 4.23574 22.3368C4.23059 22.3443 4.22027 22.3594 4.21512 22.3668C4.02715 22.0959 3.88184 21.7969 3.7098 21.5156C2.92512 20.1567 2.13996 18.7983 1.35574 17.4389C0.919804 16.6743 0.465585 15.9192 0.0413666 15.1476C1.72137 12.2484 3.39387 9.34404 5.07059 6.44294C5.07199 6.44013 5.07527 6.43497 5.07668 6.43216L5.12262 6.35341C5.12449 6.35013 5.12824 6.34357 5.13059 6.34029L5.17699 6.26107C5.18121 6.25404 5.18965 6.23904 5.19434 6.23201C5.19902 6.22357 5.2084 6.20716 5.21309 6.19872L5.25949 6.11622C5.26277 6.1106 5.26934 6.09935 5.27262 6.09372L5.3073 6.03841C5.3134 6.02951 5.32559 6.01122 5.33168 6.00185C5.34855 5.97654 5.38277 5.92544 5.40012 5.90013C5.40199 5.89169 5.40527 5.87529 5.40715 5.86732L5.44793 5.78904C5.4498 5.78576 5.45355 5.77919 5.45543 5.77591L5.5023 5.69716C5.50699 5.68966 5.51637 5.67372 5.52105 5.66576C5.52621 5.65685 5.53652 5.63857 5.54215 5.62919L5.58152 5.56029C5.58574 5.55279 5.59418 5.53826 5.5984 5.53122L5.63121 5.47357C5.63496 5.46747 5.64246 5.45435 5.64621 5.44779C5.66449 5.41638 5.70105 5.35357 5.7198 5.32216C5.72355 5.3156 5.73105 5.30247 5.7348 5.29591L5.76902 5.23357C5.77184 5.22888 5.77746 5.21857 5.78027 5.21388L5.82527 5.13513C5.8309 5.12576 5.84262 5.10654 5.84871 5.09716L5.87918 5.05122C5.88574 5.04185 5.8984 5.02357 5.90496 5.01466C5.91059 5.00529 5.9223 4.98654 5.9284 4.97716L5.95371 4.92841C5.96215 4.91013 5.97949 4.87357 5.98793 4.85529L6.01371 4.81919C6.0184 4.81263 6.0273 4.79997 6.03199 4.79341C6.04934 4.77888 6.08449 4.74888 6.10184 4.73388L6.09855 4.67904C6.10137 4.67247 6.10793 4.65935 6.11121 4.65279L6.15105 4.57357C6.15434 4.56794 6.1609 4.55622 6.16418 4.5506L6.19934 4.49341C6.2059 4.48404 6.21855 4.46529 6.22512 4.45591C6.24105 4.42966 6.2734 4.3781 6.28934 4.35232C6.29402 4.34294 6.30246 4.32466 6.30715 4.31529L6.33199 4.26138C6.33949 4.24732 6.35543 4.21872 6.3634 4.20419L6.39434 4.16013C6.4009 4.15122 6.41402 4.13341 6.42059 4.12451C6.42621 4.11513 6.43793 4.09638 6.44355 4.08701L6.46652 4.03872C6.47168 4.02794 6.48246 4.00591 6.48762 3.99513L6.52793 3.91732C6.53402 3.90794 6.54574 3.88826 6.55137 3.87841L6.5823 3.83247C6.58887 3.8231 6.60199 3.80529 6.60855 3.79591C6.61465 3.78654 6.62637 3.76732 6.63199 3.75794L6.6559 3.70919C6.66293 3.6956 6.67652 3.66888 6.68309 3.65529L6.71496 3.60279C6.72058 3.59388 6.73184 3.57607 6.73793 3.56716C6.7548 3.54091 6.78902 3.48841 6.80637 3.46263C6.80824 3.45466 6.81246 3.43872 6.81433 3.43076L6.85512 3.35294C6.85652 3.34966 6.86027 3.34357 6.86215 3.34029L6.90902 3.26013C6.91371 3.25216 6.92262 3.23669 6.9273 3.22872C6.93199 3.22122 6.9409 3.20529 6.94559 3.19779L6.99246 3.11576C6.99434 3.11247 6.99809 3.10591 6.99996 3.10216L7.04402 3.02576C7.04637 3.02247 7.05058 3.01544 7.05246 3.01169L7.0998 2.93201C7.10402 2.92451 7.11246 2.91044 7.11668 2.90294C7.12137 2.89497 7.13074 2.87857 7.13543 2.87013L7.18043 2.79091C7.18324 2.78576 7.18887 2.77591 7.19168 2.77122L7.22965 2.70982C7.23574 2.70091 7.24793 2.68263 7.25355 2.67372C7.2709 2.64794 7.30465 2.59638 7.32199 2.5706C7.3234 2.56263 7.32715 2.54669 7.32902 2.53872L7.36887 2.46232C7.37215 2.45669 7.37918 2.44497 7.38246 2.43888L7.41809 2.3831C7.42465 2.37419 7.43683 2.35591 7.4434 2.34654C7.4598 2.32029 7.49262 2.26826 7.50902 2.24201C7.51137 2.23451 7.51559 2.21951 7.51793 2.21201L7.55918 2.13466C7.56105 2.13091 7.5648 2.12435 7.56668 2.1206L7.61449 2.03997C7.61824 2.03294 7.62668 2.01888 7.6309 2.01185C7.63512 2.00388 7.64355 1.98888 7.64777 1.98138L7.69465 1.89794C7.69699 1.89466 7.70074 1.88763 7.70262 1.88435L7.74715 1.80888C7.74855 1.80654 7.75183 1.80138 7.75324 1.79904Z" fill="#0BA25E"/>
<path d="M7.8541 1.64482C9.3766 1.63779 10.8996 1.64388 12.4225 1.64154C13.6825 1.64622 14.9435 1.63169 16.203 1.64857C16.2278 1.69638 16.2532 1.74372 16.2799 1.79107C16.2836 1.79716 16.2907 1.81029 16.2944 1.81685C16.4163 2.02919 16.54 2.2406 16.6605 2.45341C16.6628 2.45716 16.6666 2.46419 16.6689 2.46747C16.9024 2.86826 17.1349 3.26951 17.3641 3.67263C17.366 3.67591 17.3702 3.68247 17.3721 3.68622C17.4138 3.75794 17.4569 3.82966 17.4996 3.90185C17.5033 3.90794 17.5103 3.9206 17.5141 3.92716C17.5727 4.03029 17.6318 4.13294 17.6913 4.2356C17.6936 4.23888 17.6974 4.24544 17.6993 4.24919C17.7588 4.35138 17.8174 4.45451 17.8764 4.55763C17.8802 4.56372 17.8872 4.57591 17.891 4.58201C17.9505 4.68232 18.0082 4.78357 18.0653 4.88482C18.0691 4.89091 18.0761 4.90357 18.0799 4.90966C18.6396 5.87622 19.1978 6.84326 19.7557 7.81122C19.6919 8.09201 19.8461 8.37138 19.7603 8.65357C19.7083 9.42466 19.4172 10.1751 18.9372 10.7808C18.7811 10.95 18.9325 11.1848 18.9157 11.3854C18.7474 11.5893 18.5308 11.7417 18.3264 11.9062C18.3269 12.06 18.3274 12.2137 18.3203 12.3679C18.138 12.4884 17.9289 12.5583 17.7438 12.6745C17.7241 12.7369 17.7039 12.7997 17.6847 12.8629C17.5361 12.9333 17.3772 12.9787 17.2286 13.05C16.6403 12.8812 16.0582 12.6933 15.4713 12.5193C14.9252 12.3389 14.366 12.1973 13.8255 11.9986L13.7946 11.9433C13.7918 11.939 13.7871 11.9306 13.7847 11.9264L13.7402 11.8509C13.7355 11.8429 13.7261 11.827 13.7214 11.819C13.7172 11.812 13.7097 11.7984 13.7055 11.7914C13.6722 11.7323 13.6418 11.6718 13.6146 11.61L13.6118 11.6039L13.6085 11.5992C13.5878 11.5664 13.5461 11.5003 13.525 11.4675C13.5227 11.4637 13.518 11.4562 13.5157 11.452L13.5021 11.4304C13.4941 11.4169 13.4777 11.3901 13.4697 11.3765C13.4496 11.3423 13.4088 11.2739 13.3886 11.2397C13.3835 11.2312 13.3736 11.2139 13.3685 11.2054L13.3399 11.1567C13.3361 11.1501 13.3286 11.1375 13.3249 11.1309L13.2794 11.0526C13.2775 11.0493 13.2733 11.0428 13.2714 11.039L13.2236 10.957C13.2194 10.9495 13.211 10.9345 13.2068 10.9275C13.2021 10.919 13.1922 10.9017 13.1875 10.8933L13.1486 10.8248C13.1439 10.8168 13.1346 10.8 13.1299 10.792L13.0999 10.739C13.0957 10.732 13.0877 10.7179 13.0835 10.7109C13.0652 10.6772 13.0282 10.6101 13.0094 10.5764C13.0075 10.5726 13.0028 10.5647 13.001 10.5609L12.9883 10.5389C12.9794 10.5258 12.9621 10.4995 12.9532 10.4864C12.9068 10.4086 12.8632 10.3289 12.8214 10.2487C12.8191 10.245 12.8149 10.237 12.813 10.2333L12.8008 10.2117C12.7919 10.199 12.7741 10.1737 12.7652 10.1615C12.7446 10.1245 12.7033 10.0504 12.6827 10.0134C12.6803 10.0097 12.6757 10.0017 12.6738 9.99747L12.6611 9.97497C12.6518 9.95951 12.6335 9.92904 12.6241 9.91357L12.5838 9.8456C12.58 9.83904 12.5721 9.82591 12.5678 9.81888C12.55 9.78794 12.5139 9.7256 12.4957 9.69466C12.4914 9.68763 12.4835 9.6731 12.4793 9.6656C12.4474 9.61263 12.4169 9.55919 12.3869 9.50576C12.3846 9.50154 12.3794 9.4931 12.3771 9.48888L12.3325 9.41247C12.3278 9.40497 12.3189 9.38997 12.3147 9.38201C12.3105 9.37497 12.3025 9.36091 12.2983 9.35388L12.251 9.27138C12.2486 9.26763 12.2444 9.25966 12.2421 9.25591L12.2036 9.18701C12.2003 9.18138 12.1943 9.1706 12.191 9.16498C12.1732 9.13357 12.1371 9.07123 12.1193 9.03982C12.1155 9.03326 12.108 9.0206 12.1043 9.01451C12.0752 8.96622 12.0461 8.91748 12.018 8.86919C10.7182 6.61357 9.41644 4.35935 8.11378 2.10513C8.03222 1.96451 7.95816 1.81826 7.85831 1.68888L7.85597 1.66779L7.8541 1.64482Z" fill="#FCCD48"/>
<path d="M7.8296 1.66874L7.85585 1.6678L7.85819 1.68889L7.82538 1.69405L7.8296 1.66874Z" fill="#089156"/>
<path d="M7.858 1.68888C7.95785 1.81826 8.03191 1.96451 8.11347 2.10513C9.41613 4.35935 10.7179 6.61357 12.0177 8.86919C11.4158 9.91732 10.8093 10.9631 10.205 12.0103C10.1239 11.5087 9.97254 11.0222 9.87598 10.5234C9.72645 9.98857 9.64348 9.43779 9.48879 8.90388C9.31066 8.04138 9.09363 7.18638 8.8991 6.32716C8.60238 5.07419 8.31738 3.81841 8.03519 2.56169C7.96956 2.27247 7.88238 1.98607 7.858 1.68888Z" fill="#089156"/>
<path d="M7.74701 1.80891C7.74842 1.80656 7.7517 1.80141 7.7531 1.79906C7.7517 1.80141 7.74842 1.80656 7.74701 1.80891Z" fill="#089156"/>
<path d="M7.69461 1.89796C7.69695 1.89468 7.7007 1.88765 7.70258 1.88437C7.7007 1.88765 7.69695 1.89468 7.69461 1.89796Z" fill="#089156"/>
<path d="M7.63074 2.01186C7.63496 2.00389 7.64339 1.98889 7.64761 1.98139C7.64339 1.98889 7.63496 2.00389 7.63074 2.01186Z" fill="#089156"/>
<path d="M7.61444 2.03996C7.61819 2.03293 7.62663 2.01886 7.63085 2.01183C7.62663 2.01886 7.61819 2.03293 7.61444 2.03996Z" fill="#089156"/>
<path d="M7.55928 2.1347C7.56116 2.13095 7.56491 2.12439 7.56678 2.12064C7.56491 2.12439 7.56116 2.13095 7.55928 2.1347Z" fill="#089156"/>
<path d="M7.50897 2.24203C7.51132 2.23453 7.51553 2.21953 7.51788 2.21203C7.51553 2.21953 7.51132 2.23453 7.50897 2.24203Z" fill="#089156"/>
<path d="M7.44324 2.34655C7.45964 2.3203 7.49246 2.26827 7.50886 2.24202C7.49246 2.26827 7.45964 2.3203 7.44324 2.34655Z" fill="#089156"/>
<path d="M7.41797 2.38314C7.42453 2.37423 7.43672 2.35595 7.44328 2.34657C7.43672 2.35595 7.42453 2.37423 7.41797 2.38314Z" fill="#089156"/>
<path d="M7.36902 2.46232C7.3723 2.45669 7.37933 2.44497 7.38261 2.43888C7.37933 2.44497 7.3723 2.45669 7.36902 2.46232Z" fill="#089156"/>
<path d="M7.32214 2.57059C7.32355 2.56263 7.3273 2.54669 7.32917 2.53872C7.3273 2.54669 7.32355 2.56263 7.32214 2.57059Z" fill="#089156"/>
<path d="M7.25369 2.67373C7.27104 2.64795 7.30479 2.59638 7.32213 2.5706C7.30479 2.59638 7.27104 2.64795 7.25369 2.67373Z" fill="#089156"/>
<path d="M7.22955 2.70981C7.23565 2.7009 7.24783 2.68262 7.25346 2.67371C7.24783 2.68262 7.23565 2.7009 7.22955 2.70981Z" fill="#089156"/>
<path d="M7.1806 2.79094C7.18342 2.78579 7.18904 2.77594 7.19185 2.77126C7.18904 2.77594 7.18342 2.78579 7.1806 2.79094Z" fill="#089156"/>
<path d="M7.11673 2.90293C7.12142 2.89496 7.13079 2.87855 7.13548 2.87012C7.13079 2.87855 7.12142 2.89496 7.11673 2.90293Z" fill="#089156"/>
<path d="M7.09973 2.93204C7.10395 2.92454 7.11239 2.91048 7.11661 2.90298C7.11239 2.91048 7.10395 2.92454 7.09973 2.93204Z" fill="#089156"/>
<path d="M7.04388 3.02578C7.04623 3.0225 7.05045 3.01547 7.05232 3.01172C7.05045 3.01547 7.04623 3.0225 7.04388 3.02578Z" fill="#089156"/>
<path d="M6.99242 3.11579C6.99429 3.11251 6.99804 3.10595 6.99992 3.1022C6.99804 3.10595 6.99429 3.11251 6.99242 3.11579Z" fill="#089156"/>
<path d="M6.9274 3.22872C6.93209 3.22122 6.94099 3.20528 6.94568 3.19778C6.94099 3.20528 6.93209 3.22122 6.9274 3.22872Z" fill="#089156"/>
<path d="M6.90878 3.26015C6.91347 3.25218 6.92238 3.23671 6.92706 3.22874C6.92238 3.23671 6.91347 3.25218 6.90878 3.26015Z" fill="#089156"/>
<path d="M6.85526 3.35297C6.85666 3.34968 6.86041 3.34359 6.86229 3.34031C6.86041 3.34359 6.85666 3.34968 6.85526 3.35297Z" fill="#089156"/>
<path d="M6.80652 3.46266C6.80839 3.45469 6.81261 3.43875 6.81449 3.43079C6.81261 3.43875 6.80839 3.45469 6.80652 3.46266Z" fill="#089156"/>
<path d="M6.73807 3.5672C6.75494 3.54095 6.78916 3.48845 6.8065 3.46267C6.78916 3.48845 6.75494 3.54095 6.73807 3.5672Z" fill="#089156"/>
<path d="M6.71484 3.60278C6.72047 3.59387 6.73172 3.57606 6.73781 3.56715C6.73172 3.57606 6.72047 3.59387 6.71484 3.60278Z" fill="#089156"/>
<path d="M6.65604 3.70919C6.66307 3.69559 6.67666 3.66887 6.68322 3.65528C6.67666 3.66887 6.66307 3.69559 6.65604 3.70919Z" fill="#089156"/>
<path d="M6.60846 3.7959C6.61455 3.78652 6.62627 3.7673 6.6319 3.75793C6.62627 3.7673 6.61455 3.78652 6.60846 3.7959Z" fill="#089156"/>
<path d="M6.58226 3.83247C6.58882 3.82309 6.60195 3.80528 6.60851 3.79591C6.60195 3.80528 6.58882 3.82309 6.58226 3.83247Z" fill="#089156"/>
<path d="M6.52803 3.91735C6.53412 3.90798 6.54584 3.88829 6.55147 3.87845C6.54584 3.88829 6.53412 3.90798 6.52803 3.91735Z" fill="#089156"/>
<path d="M6.46667 4.03872C6.47183 4.02794 6.48261 4.00591 6.48777 3.99512C6.48261 4.00591 6.47183 4.02794 6.46667 4.03872Z" fill="#089156"/>
<path d="M6.42073 4.12454C6.42636 4.11516 6.43807 4.09641 6.4437 4.08704C6.43807 4.09641 6.42636 4.11516 6.42073 4.12454Z" fill="#089156"/>
<path d="M6.39407 4.16017C6.40064 4.15126 6.41376 4.13345 6.42032 4.12454C6.41376 4.13345 6.40064 4.15126 6.39407 4.16017Z" fill="#089156"/>
<path d="M6.3318 4.26141C6.3393 4.24735 6.35524 4.21875 6.36321 4.20422C6.35524 4.21875 6.3393 4.24735 6.3318 4.26141Z" fill="#089156"/>
<path d="M6.28929 4.35235C6.29398 4.34297 6.30242 4.32469 6.3071 4.31532C6.30242 4.32469 6.29398 4.34297 6.28929 4.35235Z" fill="#089156"/>
<path d="M6.22519 4.4559C6.24113 4.42965 6.27347 4.37809 6.28941 4.35231C6.27347 4.37809 6.24113 4.42965 6.22519 4.4559Z" fill="#089156"/>
<path d="M6.19922 4.49344C6.20578 4.48407 6.21844 4.46532 6.225 4.45594C6.21844 4.46532 6.20578 4.48407 6.19922 4.49344Z" fill="#089156"/>
<path d="M6.1512 4.57358C6.15448 4.56796 6.16104 4.55624 6.16432 4.55061C6.16104 4.55624 6.15448 4.56796 6.1512 4.57358Z" fill="#089156"/>
<path d="M6.09836 4.67906C6.10117 4.6725 6.10773 4.65937 6.11101 4.65281C6.10773 4.65937 6.10117 4.6725 6.09836 4.67906Z" fill="#089156"/>
<path d="M6.03217 4.79344C6.04857 4.76484 6.08185 4.70766 6.09873 4.67906L6.10201 4.73391C6.08467 4.74891 6.04951 4.77891 6.03217 4.79344Z" fill="#089156"/>
<path d="M6.01355 4.81922C6.01824 4.81265 6.02714 4.8 6.03183 4.79343C6.02714 4.8 6.01824 4.81265 6.01355 4.81922Z" fill="#089156"/>
<path d="M5.95383 4.92843C5.96226 4.91014 5.97961 4.87358 5.98805 4.8553C5.97961 4.87358 5.96226 4.91014 5.95383 4.92843Z" fill="#089156"/>
<path d="M5.90511 5.0147C5.91073 5.00532 5.92245 4.98657 5.92854 4.9772C5.92245 4.98657 5.91073 5.00532 5.90511 5.0147Z" fill="#089156"/>
<path d="M5.87914 5.05122C5.8857 5.04184 5.89835 5.02356 5.90492 5.01466C5.89835 5.02356 5.8857 5.04184 5.87914 5.05122Z" fill="#089156"/>
<path d="M5.82513 5.13517C5.83076 5.12579 5.84248 5.10657 5.84857 5.0972C5.84248 5.10657 5.83076 5.12579 5.82513 5.13517Z" fill="#089156"/>
<path d="M5.76907 5.23356C5.77189 5.22887 5.77751 5.21856 5.78032 5.21387C5.77751 5.21856 5.77189 5.22887 5.76907 5.23356Z" fill="#089156"/>
<path d="M5.71967 5.32216C5.72342 5.31559 5.73092 5.30247 5.73467 5.29591C5.73092 5.30247 5.72342 5.31559 5.71967 5.32216Z" fill="#089156"/>
<path d="M5.6312 5.47357C5.63495 5.46747 5.64244 5.45435 5.64619 5.44778C5.64244 5.45435 5.63495 5.46747 5.6312 5.47357Z" fill="#089156"/>
<path d="M5.58157 5.56031C5.58579 5.55281 5.59423 5.53828 5.59845 5.53125C5.59423 5.53828 5.58579 5.55281 5.58157 5.56031Z" fill="#089156"/>
<path d="M5.52115 5.66576C5.5263 5.65685 5.53662 5.63857 5.54224 5.6292C5.53662 5.63857 5.5263 5.65685 5.52115 5.66576Z" fill="#089156"/>
<path d="M5.50229 5.6972C5.50698 5.6897 5.51635 5.67376 5.52104 5.66579C5.51635 5.67376 5.50698 5.6897 5.50229 5.6972Z" fill="#089156"/>
<path d="M5.44807 5.78903C5.44995 5.78575 5.4537 5.77919 5.45557 5.77591C5.4537 5.77919 5.44995 5.78575 5.44807 5.78903Z" fill="#089156"/>
<path d="M5.40027 5.90011C5.40214 5.89168 5.40542 5.87527 5.4073 5.8673C5.40542 5.87527 5.40214 5.89168 5.40027 5.90011Z" fill="#089156"/>
<path d="M5.3318 6.00189C5.34868 5.97658 5.3829 5.92548 5.40024 5.90017C5.3829 5.92548 5.34868 5.97658 5.3318 6.00189Z" fill="#089156"/>
<path d="M5.30745 6.03839C5.31354 6.02949 5.32573 6.01121 5.33182 6.00183C5.32573 6.01121 5.31354 6.02949 5.30745 6.03839Z" fill="#089156"/>
<path d="M5.25964 6.11625C5.26292 6.11062 5.26949 6.09938 5.27277 6.09375C5.26949 6.09938 5.26292 6.11062 5.25964 6.11625Z" fill="#089156"/>
<path d="M5.19415 6.23205C5.19884 6.22361 5.20822 6.20721 5.2129 6.19877C5.20822 6.20721 5.19884 6.22361 5.19415 6.23205Z" fill="#089156"/>
<path d="M5.17694 6.26108C5.18116 6.25405 5.1896 6.23905 5.19428 6.23202C5.1896 6.23905 5.18116 6.25405 5.17694 6.26108Z" fill="#089156"/>
<path d="M5.12271 6.35343C5.12459 6.35015 5.12834 6.34358 5.13068 6.3403C5.12834 6.34358 5.12459 6.35015 5.12271 6.35343Z" fill="#089156"/>
<path d="M5.07054 6.44294C5.07195 6.44013 5.07523 6.43497 5.07664 6.43216C5.07523 6.43497 5.07195 6.44013 5.07054 6.44294Z" fill="#089156"/>
<path d="M10.0735 12.2273C10.0815 12.2142 10.0984 12.188 10.1063 12.1753C10.0984 12.188 10.0815 12.2142 10.0735 12.2273Z" fill="#089156"/>
<path d="M10.0529 12.2639C10.0552 12.2602 10.0594 12.2522 10.0613 12.2484C10.0594 12.2522 10.0552 12.2602 10.0529 12.2639Z" fill="#089156"/>
<path d="M9.96555 12.4223C9.9693 12.4163 9.97633 12.4041 9.97961 12.398C9.97633 12.4041 9.9693 12.4163 9.96555 12.4223Z" fill="#089156"/>
<path d="M9.9166 12.509C9.92035 12.502 9.92831 12.4884 9.93253 12.4814C9.92831 12.4884 9.92035 12.502 9.9166 12.509Z" fill="#089156"/>
<path d="M9.86902 12.592C9.87136 12.5882 9.87558 12.5807 9.87746 12.577C9.87558 12.5807 9.87136 12.5882 9.86902 12.592Z" fill="#089156"/>
<path d="M9.80399 12.7059C9.8082 12.6984 9.81664 12.6834 9.82086 12.6764C9.81664 12.6834 9.8082 12.6984 9.80399 12.7059Z" fill="#089156"/>
<path d="M9.78516 12.7373C9.78984 12.7293 9.79922 12.7138 9.80391 12.7059C9.79922 12.7138 9.78984 12.7293 9.78516 12.7373Z" fill="#089156"/>
<path d="M9.72289 12.8443C9.72664 12.8382 9.73414 12.825 9.73789 12.8189C9.73414 12.825 9.72664 12.8382 9.72289 12.8443Z" fill="#089156"/>
<path d="M9.67418 12.9276C9.67887 12.9192 9.68918 12.9018 9.69387 12.8934C9.68918 12.9018 9.67887 12.9192 9.67418 12.9276Z" fill="#089156"/>
<path d="M9.58594 13.0809C9.58922 13.0748 9.59625 13.0631 9.59953 13.0574C9.59625 13.0631 9.58922 13.0748 9.58594 13.0809Z" fill="#089156"/>
<path d="M9.53632 13.1648C9.54147 13.1559 9.55178 13.1391 9.55647 13.1302C9.55178 13.1391 9.54147 13.1559 9.53632 13.1648Z" fill="#089156"/>
<path d="M9.44968 13.3148C9.4539 13.3078 9.46186 13.2932 9.46608 13.2862C9.46186 13.2932 9.4539 13.3078 9.44968 13.3148Z" fill="#089156"/>
<path d="M9.40118 13.4011C9.40447 13.3954 9.41103 13.3837 9.41431 13.3781C9.41103 13.3837 9.40447 13.3954 9.40118 13.4011Z" fill="#089156"/>
<path d="M9.35042 13.4906C9.35417 13.4841 9.36167 13.4709 9.36542 13.4644C9.36167 13.4709 9.35417 13.4841 9.35042 13.4906Z" fill="#089156"/>
<path d="M9.25964 13.6444C9.26386 13.6369 9.2723 13.6224 9.27652 13.6153C9.2723 13.6224 9.26386 13.6369 9.25964 13.6444Z" fill="#089156"/>
<path d="M9.21439 13.7264C9.2172 13.7208 9.22329 13.71 9.22657 13.7044C9.22329 13.71 9.2172 13.7208 9.21439 13.7264Z" fill="#089156"/>
<path d="M9.16223 13.8164C9.16551 13.8108 9.17254 13.799 9.17583 13.793C9.17254 13.799 9.16551 13.8108 9.16223 13.8164Z" fill="#089156"/>
<path d="M9.0694 13.9753C9.07315 13.9692 9.08065 13.957 9.08393 13.9509C9.08065 13.957 9.07315 13.9692 9.0694 13.9753Z" fill="#089156"/>
<path d="M9.02229 14.055C9.02698 14.0465 9.03682 14.0301 9.04151 14.0217C9.03682 14.0301 9.02698 14.0465 9.02229 14.055Z" fill="#089156"/>
<path d="M8.93933 14.1999C8.94214 14.1947 8.94871 14.1835 8.95152 14.1783C8.94871 14.1835 8.94214 14.1947 8.93933 14.1999Z" fill="#089156"/>
<path d="M8.88925 14.2884C8.89206 14.2833 8.89769 14.2734 8.9005 14.2683C8.89769 14.2734 8.89206 14.2833 8.88925 14.2884Z" fill="#089156"/>
<path d="M8.83685 14.3789C8.84013 14.3737 8.8467 14.3625 8.84998 14.3573C8.8467 14.3625 8.84013 14.3737 8.83685 14.3789Z" fill="#089156"/>
<path d="M8.7438 14.535C8.74896 14.5266 8.75834 14.5097 8.76349 14.5017C8.75834 14.5097 8.74896 14.5266 8.7438 14.535Z" fill="#089156"/>
<path d="M8.70175 14.6124C8.70503 14.6063 8.71206 14.5932 8.71581 14.5866C8.71206 14.5932 8.70503 14.6063 8.70175 14.6124Z" fill="#089156"/>
<path d="M8.63763 14.7239C8.64138 14.7169 8.64982 14.7028 8.65357 14.6958C8.64982 14.7028 8.64138 14.7169 8.63763 14.7239Z" fill="#089156"/>
<path d="M8.62225 14.7506C8.626 14.744 8.6335 14.7305 8.63772 14.7239C8.6335 14.7305 8.626 14.744 8.62225 14.7506Z" fill="#089156"/>
<path d="M16.2799 1.79107C16.2836 1.79716 16.2906 1.81029 16.2944 1.81685C16.2906 1.81029 16.2836 1.79716 16.2799 1.79107Z" fill="#10985B"/>
<path d="M16.6604 2.45341C16.6627 2.45716 16.6665 2.46419 16.6688 2.46747C16.6665 2.46419 16.6627 2.45716 16.6604 2.45341Z" fill="#10985B"/>
<path d="M17.3642 3.67262C17.3661 3.6759 17.3703 3.68246 17.3722 3.68621C17.3703 3.68246 17.3661 3.6759 17.3642 3.67262Z" fill="#10985B"/>
<path d="M17.4995 3.90188C17.5033 3.90797 17.5103 3.92063 17.5141 3.92719C17.5103 3.92063 17.5033 3.90797 17.4995 3.90188Z" fill="#10985B"/>
<path d="M17.6914 4.23558C17.6938 4.23886 17.6975 4.24542 17.6994 4.24917C17.6975 4.24542 17.6938 4.23886 17.6914 4.23558Z" fill="#10985B"/>
<path d="M17.8764 4.55762C17.8801 4.56371 17.8871 4.5759 17.8909 4.58199C17.8871 4.5759 17.8801 4.56371 17.8764 4.55762Z" fill="#10985B"/>
<path d="M18.0655 4.88482C18.0693 4.89091 18.0763 4.90357 18.08 4.90966C18.0763 4.90357 18.0693 4.89091 18.0655 4.88482Z" fill="#10985B"/>
<path d="M19.7554 7.81123C20.5706 9.22357 21.3909 10.6336 22.1995 12.0501C22.2033 12.0562 22.2108 12.0693 22.2145 12.0754C22.2333 12.1064 22.2708 12.1678 22.289 12.1983C22.2928 12.2044 22.3003 12.217 22.304 12.2231L22.3415 12.2873C22.3439 12.2915 22.3486 12.3004 22.3514 12.3047L22.3983 12.3862C22.4029 12.3942 22.4118 12.4106 22.4165 12.4186C22.4208 12.4256 22.4292 12.4401 22.4334 12.4476L22.4793 12.5273C22.4812 12.5306 22.485 12.5372 22.4868 12.5404L22.5328 12.6192C22.5347 12.6225 22.5384 12.6286 22.5403 12.6318L22.5862 12.7115C22.5909 12.7195 22.5998 12.735 22.6045 12.7429C22.6087 12.7509 22.6176 12.7664 22.6218 12.7739L22.6692 12.8573C22.6758 12.8737 22.6889 12.9056 22.6954 12.9215L22.7086 12.9473L22.7147 12.9609L22.725 12.9745L22.7526 13.0162C22.7625 13.0317 22.7817 13.0626 22.7915 13.0781C22.7972 13.0875 22.8093 13.1062 22.815 13.1156L22.8459 13.1648C22.8553 13.1859 22.874 13.2286 22.8834 13.2497L22.8975 13.275L22.9026 13.2848L22.9068 13.2909C22.9275 13.3214 22.9683 13.3828 22.9889 13.4133C22.994 13.4217 23.0043 13.4386 23.01 13.447L23.0381 13.4939C23.0423 13.5014 23.0508 13.5159 23.055 13.5229L23.1023 13.6059C23.1065 13.6134 23.115 13.6284 23.1192 13.6359C23.1234 13.6434 23.1318 13.6579 23.1361 13.6654L23.1829 13.7456C23.1848 13.7493 23.189 13.7564 23.1914 13.7597L23.234 13.8347C23.2368 13.8393 23.2425 13.8492 23.2453 13.8539L23.2884 13.9293C23.2936 13.9378 23.3034 13.9551 23.3086 13.9636C23.3128 13.9711 23.3217 13.9861 23.3259 13.9936C23.3606 14.0512 23.3939 14.1098 23.4248 14.1698C23.4295 14.1797 23.4389 14.1993 23.4431 14.2092L23.4647 14.2579C23.4703 14.2673 23.4815 14.2865 23.4867 14.2959C23.4937 14.3053 23.5073 14.3231 23.5143 14.332L23.5467 14.3779C23.5523 14.3868 23.5636 14.4047 23.5697 14.414L23.617 14.4961C23.6212 14.5036 23.6297 14.5186 23.6339 14.5261C23.6381 14.5336 23.6465 14.5481 23.6512 14.5556L23.6981 14.6362C23.7 14.64 23.7037 14.6465 23.7056 14.6498L23.7501 14.7276C23.752 14.7309 23.7558 14.737 23.7576 14.7403L23.8031 14.8195C23.8078 14.8275 23.8172 14.8434 23.8218 14.8518C23.8265 14.8598 23.8359 14.8758 23.8401 14.8837L23.887 14.9643C23.8889 14.9676 23.8922 14.9742 23.894 14.9775L23.9437 15.0703L23.9433 15.1125C22.7704 14.7754 21.6164 14.3756 20.4403 14.0508C19.3729 13.7062 18.2958 13.3926 17.2284 13.05C17.377 12.9787 17.5359 12.9333 17.6845 12.8629C17.7037 12.7997 17.7239 12.7368 17.7436 12.6745C17.9287 12.5583 18.1378 12.4884 18.3201 12.3679C18.3272 12.2137 18.3267 12.06 18.3262 11.9062C18.5306 11.7417 18.7472 11.5894 18.9154 11.3854C18.9323 11.1848 18.7809 10.95 18.937 10.7808C19.417 10.1751 19.7081 9.42467 19.7601 8.65358C19.8459 8.37139 19.6917 8.09201 19.7554 7.81123Z" fill="#F9C941"/>
<path d="M23.9433 15.1125L23.9676 15.1134L23.9812 15.149L23.9536 15.1509L23.9433 15.1125Z" fill="#F9C941"/>
<path d="M12.1039 9.01453C12.1076 9.02063 12.1151 9.03328 12.1189 9.03985C12.1151 9.03328 12.1076 9.02063 12.1039 9.01453Z" fill="#E3B73A"/>
<path d="M12.1905 9.16499C12.1938 9.17061 12.1999 9.18139 12.2031 9.18702C12.1999 9.18139 12.1938 9.17061 12.1905 9.16499Z" fill="#E3B73A"/>
<path d="M12.2417 9.25593C12.2441 9.25968 12.2483 9.26765 12.2506 9.2714C12.2483 9.26765 12.2441 9.25968 12.2417 9.25593Z" fill="#E3B73A"/>
<path d="M12.2978 9.35393C12.302 9.36096 12.31 9.37502 12.3142 9.38205C12.31 9.37502 12.302 9.36096 12.2978 9.35393Z" fill="#E3B73A"/>
<path d="M12.3146 9.382C12.3188 9.38997 12.3277 9.40497 12.3324 9.41247C12.3277 9.40497 12.3188 9.38997 12.3146 9.382Z" fill="#E3B73A"/>
<path d="M12.3768 9.48891C12.3792 9.49313 12.3843 9.50156 12.3867 9.50578C12.3843 9.50156 12.3792 9.49313 12.3768 9.48891Z" fill="#E3B73A"/>
<path d="M12.4789 9.66561C12.4831 9.67311 12.491 9.68764 12.4953 9.69467C12.491 9.68764 12.4831 9.67311 12.4789 9.66561Z" fill="#E3B73A"/>
<path d="M12.5673 9.81894C12.5715 9.82597 12.5795 9.83909 12.5832 9.84566C12.5795 9.83909 12.5715 9.82597 12.5673 9.81894Z" fill="#E3B73A"/>
<path d="M12.6238 9.91361C12.6332 9.92908 12.6515 9.95955 12.6609 9.97502C12.6515 9.95955 12.6332 9.92908 12.6238 9.91361Z" fill="#E3B73A"/>
<path d="M12.6735 9.99747C12.6754 10.0017 12.68 10.0097 12.6824 10.0134C12.68 10.0097 12.6754 10.0017 12.6735 9.99747Z" fill="#E3B73A"/>
<path d="M12.7647 10.1615C12.7736 10.1737 12.7914 10.199 12.8003 10.2117C12.7914 10.199 12.7736 10.1737 12.7647 10.1615Z" fill="#E3B73A"/>
<path d="M12.8125 10.2333C12.8144 10.237 12.8186 10.245 12.8209 10.2488C12.8186 10.245 12.8144 10.237 12.8125 10.2333Z" fill="#E3B73A"/>
<path d="M12.9529 10.4864C12.9618 10.4995 12.9791 10.5258 12.988 10.5389C12.9791 10.5258 12.9618 10.4995 12.9529 10.4864Z" fill="#E3B73A"/>
<path d="M13.0007 10.561C13.0026 10.5647 13.0073 10.5727 13.0091 10.5764C13.0073 10.5727 13.0026 10.5647 13.0007 10.561Z" fill="#E3B73A"/>
<path d="M13.0829 10.7109C13.0872 10.718 13.0951 10.732 13.0993 10.7391C13.0951 10.732 13.0872 10.718 13.0829 10.7109Z" fill="#E3B73A"/>
<path d="M13.1296 10.792C13.1343 10.8 13.1437 10.8169 13.1483 10.8249C13.1437 10.8169 13.1343 10.8 13.1296 10.792Z" fill="#E3B73A"/>
<path d="M13.1873 10.8933C13.1919 10.9017 13.2018 10.9191 13.2065 10.9275C13.2018 10.9191 13.1919 10.9017 13.1873 10.8933Z" fill="#E3B73A"/>
<path d="M13.2063 10.9275C13.2105 10.9345 13.219 10.9495 13.2232 10.957C13.219 10.9495 13.2105 10.9345 13.2063 10.9275Z" fill="#E3B73A"/>
<path d="M13.2711 11.0391C13.273 11.0428 13.2772 11.0494 13.2791 11.0527C13.2772 11.0494 13.273 11.0428 13.2711 11.0391Z" fill="#E3B73A"/>
<path d="M13.3245 11.1309C13.3282 11.1375 13.3357 11.1501 13.3395 11.1567C13.3357 11.1501 13.3282 11.1375 13.3245 11.1309Z" fill="#E3B73A"/>
<path d="M13.3679 11.2055C13.373 11.2139 13.3829 11.2313 13.388 11.2397C13.3829 11.2313 13.373 11.2139 13.3679 11.2055Z" fill="#E3B73A"/>
<path d="M13.4694 11.3765C13.4774 11.3901 13.4938 11.4169 13.5018 11.4305C13.4938 11.4169 13.4774 11.3901 13.4694 11.3765Z" fill="#E3B73A"/>
<path d="M13.5154 11.452C13.5177 11.4563 13.5224 11.4638 13.5248 11.4675C13.5224 11.4638 13.5177 11.4563 13.5154 11.452Z" fill="#E3B73A"/>
<path d="M13.6082 11.5992L13.6115 11.6039L13.6143 11.61C13.6129 11.6072 13.6096 11.602 13.6082 11.5992Z" fill="#E3B73A"/>
<path d="M13.705 11.7914C13.7092 11.7985 13.7167 11.8121 13.7209 11.8191C13.7167 11.8121 13.7092 11.7985 13.705 11.7914Z" fill="#E3B73A"/>
<path d="M13.721 11.8191C13.7257 11.827 13.7351 11.843 13.7398 11.8509C13.7351 11.843 13.7257 11.827 13.721 11.8191Z" fill="#E3B73A"/>
<path d="M13.7842 11.9264C13.7866 11.9306 13.7913 11.9391 13.7941 11.9433C13.7913 11.9391 13.7866 11.9306 13.7842 11.9264Z" fill="#E3B73A"/>
<path d="M13.8249 11.9986C14.3654 12.1974 14.9246 12.3389 15.4707 12.5194C16.0576 12.6933 16.6397 12.8813 17.228 13.05C18.2954 13.3927 19.3725 13.7063 20.4399 14.0508C20.424 14.2791 20.469 14.513 20.4122 14.7371C20.3686 14.955 20.108 14.9892 20.0007 15.1632C18.5583 15.1636 17.1165 15.1678 15.6746 15.1617L15.6437 15.1594C15.0479 14.1 14.4282 13.0538 13.8249 11.9986Z" fill="#E3B73A"/>
<path d="M22.1997 12.0502C22.2034 12.0562 22.2109 12.0694 22.2147 12.0755C22.2109 12.0694 22.2034 12.0562 22.1997 12.0502Z" fill="#E8B835"/>
<path d="M22.2891 12.1983C22.2928 12.2044 22.3003 12.2171 22.3041 12.2232C22.3003 12.2171 22.2928 12.2044 22.2891 12.1983Z" fill="#E8B835"/>
<path d="M22.3414 12.2873C22.3438 12.2916 22.3485 12.3005 22.3513 12.3047C22.3485 12.3005 22.3438 12.2916 22.3414 12.2873Z" fill="#E8B835"/>
<path d="M22.3982 12.3862C22.4029 12.3942 22.4118 12.4106 22.4165 12.4186C22.4118 12.4106 22.4029 12.3942 22.3982 12.3862Z" fill="#E8B835"/>
<path d="M22.4168 12.4186C22.421 12.4257 22.4295 12.4402 22.4337 12.4477C22.4295 12.4402 22.421 12.4257 22.4168 12.4186Z" fill="#E8B835"/>
<path d="M22.4793 12.5273C22.4812 12.5306 22.4849 12.5372 22.4868 12.5405C22.4849 12.5372 22.4812 12.5306 22.4793 12.5273Z" fill="#E8B835"/>
<path d="M22.5326 12.6192C22.5345 12.6225 22.5383 12.6286 22.5401 12.6319C22.5383 12.6286 22.5345 12.6225 22.5326 12.6192Z" fill="#E8B835"/>
<path d="M22.5864 12.7116C22.5911 12.7196 22.6 12.7351 22.6047 12.743C22.6 12.7351 22.5911 12.7196 22.5864 12.7116Z" fill="#E8B835"/>
<path d="M22.6046 12.743C22.6088 12.751 22.6177 12.7664 22.6219 12.7739C22.6177 12.7664 22.6088 12.751 22.6046 12.743Z" fill="#E8B835"/>
<path d="M22.6693 12.8573C22.6759 12.8737 22.689 12.9056 22.6956 12.9215C22.689 12.9056 22.6759 12.8737 22.6693 12.8573Z" fill="#E8B835"/>
<path d="M22.7084 12.9474C22.7126 12.9544 22.7206 12.968 22.7248 12.9746L22.7145 12.961L22.7084 12.9474Z" fill="#E8B835"/>
<path d="M22.7525 13.0163C22.7624 13.0318 22.7816 13.0627 22.7914 13.0782C22.7816 13.0627 22.7624 13.0318 22.7525 13.0163Z" fill="#E8B835"/>
<path d="M22.7918 13.0781C22.7974 13.0875 22.8096 13.1062 22.8153 13.1156C22.8096 13.1062 22.7974 13.0875 22.7918 13.0781Z" fill="#E8B835"/>
<path d="M22.8461 13.1649C22.8554 13.186 22.8742 13.2286 22.8836 13.2497C22.8742 13.2286 22.8554 13.186 22.8461 13.1649Z" fill="#E8B835"/>
<path d="M22.8975 13.2751C22.8999 13.2793 22.9046 13.2872 22.9069 13.291L22.9027 13.2849L22.8975 13.2751Z" fill="#E8B835"/>
<path d="M22.9892 13.4133C22.9944 13.4217 23.0047 13.4386 23.0103 13.447C23.0047 13.4386 22.9944 13.4217 22.9892 13.4133Z" fill="#E8B835"/>
<path d="M23.0382 13.4939C23.0424 13.5014 23.0508 13.5159 23.055 13.523C23.0508 13.5159 23.0424 13.5014 23.0382 13.4939Z" fill="#E8B835"/>
<path d="M23.1023 13.6059C23.1065 13.6134 23.1149 13.6284 23.1191 13.6359C23.1149 13.6284 23.1065 13.6134 23.1023 13.6059Z" fill="#E8B835"/>
<path d="M23.1192 13.6359C23.1235 13.6434 23.1319 13.6579 23.1361 13.6654C23.1319 13.6579 23.1235 13.6434 23.1192 13.6359Z" fill="#E8B835"/>
<path d="M23.1831 13.7456C23.185 13.7494 23.1892 13.7564 23.1916 13.7597C23.1892 13.7564 23.185 13.7494 23.1831 13.7456Z" fill="#E8B835"/>
<path d="M23.2339 13.8347C23.2367 13.8394 23.2424 13.8492 23.2452 13.8539C23.2424 13.8492 23.2367 13.8394 23.2339 13.8347Z" fill="#E8B835"/>
<path d="M23.2886 13.9293C23.2938 13.9378 23.3036 13.9551 23.3088 13.9636C23.3036 13.9551 23.2938 13.9378 23.2886 13.9293Z" fill="#E8B835"/>
<path d="M23.3086 13.9636C23.3128 13.9711 23.3217 13.9861 23.3259 13.9936C23.3217 13.9861 23.3128 13.9711 23.3086 13.9636Z" fill="#E8B835"/>
<path d="M20.4404 14.0508C21.6165 14.3756 22.7705 14.7755 23.9433 15.1125L23.9537 15.1509C22.6369 15.1809 21.3183 15.1561 20.0012 15.1631C20.1085 14.9892 20.3691 14.955 20.4127 14.737C20.4694 14.513 20.4244 14.2791 20.4404 14.0508Z" fill="#E8B835"/>
<path d="M23.4249 14.1698C23.4296 14.1797 23.4389 14.1993 23.4432 14.2092C23.4389 14.1993 23.4296 14.1797 23.4249 14.1698Z" fill="#E8B835"/>
<path d="M23.4646 14.2579C23.4702 14.2673 23.4815 14.2865 23.4866 14.2959C23.4815 14.2865 23.4702 14.2673 23.4646 14.2579Z" fill="#E8B835"/>
<path d="M23.4869 14.296C23.4939 14.3053 23.5075 14.3232 23.5145 14.3321C23.5075 14.3232 23.4939 14.3053 23.4869 14.296Z" fill="#E8B835"/>
<path d="M23.5466 14.378C23.5523 14.3869 23.5635 14.4047 23.5696 14.4141C23.5635 14.4047 23.5523 14.3869 23.5466 14.378Z" fill="#E8B835"/>
<path d="M23.6169 14.4961C23.6212 14.5036 23.6296 14.5186 23.6338 14.5261C23.6296 14.5186 23.6212 14.5036 23.6169 14.4961Z" fill="#E8B835"/>
<path d="M23.634 14.5261C23.6382 14.5336 23.6466 14.5481 23.6513 14.5556C23.6466 14.5481 23.6382 14.5336 23.634 14.5261Z" fill="#E8B835"/>
<path d="M23.6981 14.6362C23.6999 14.64 23.7037 14.6466 23.7056 14.6498C23.7037 14.6466 23.6999 14.64 23.6981 14.6362Z" fill="#E8B835"/>
<path d="M23.7502 14.7277C23.7521 14.731 23.7559 14.7371 23.7577 14.7404C23.7559 14.7371 23.7521 14.731 23.7502 14.7277Z" fill="#E8B835"/>
<path d="M23.8033 14.8195C23.808 14.8275 23.8174 14.8434 23.8221 14.8518C23.8174 14.8434 23.808 14.8275 23.8033 14.8195Z" fill="#E8B835"/>
<path d="M23.8217 14.8519C23.8264 14.8599 23.8358 14.8758 23.84 14.8838C23.8358 14.8758 23.8264 14.8599 23.8217 14.8519Z" fill="#E8B835"/>
<path d="M23.8872 14.9644C23.8891 14.9677 23.8923 14.9742 23.8942 14.9775C23.8923 14.9742 23.8891 14.9677 23.8872 14.9644Z" fill="#E8B835"/>
<path d="M23.9437 15.0703C23.9498 15.0811 23.9615 15.1027 23.9676 15.1134L23.9433 15.1125L23.9437 15.0703Z" fill="#E8B835"/>
<path d="M6.94185 17.6283C7.42513 16.8042 7.8845 15.9647 8.38372 15.1504C10.8039 15.1593 13.2245 15.1368 15.6442 15.1593L15.6751 15.1617C14.4512 15.2011 13.224 15.1514 12.0001 15.1823C11.7667 15.3328 11.6111 15.5765 11.3875 15.7406C11.1798 15.892 11.027 16.1029 10.8287 16.2647C10.5508 16.4695 10.344 16.7536 10.0618 16.9542C9.7356 17.2997 9.35919 17.5908 9.03013 17.9344C8.78357 18.1237 8.57732 18.3576 8.34763 18.5662C8.09497 18.7495 7.90138 18.9979 7.66513 19.2004C7.65903 19.2056 7.64731 19.2159 7.64122 19.2215C7.62856 19.2314 7.60372 19.252 7.59107 19.2619C7.58497 19.267 7.57372 19.2764 7.56763 19.2815C7.38153 19.4255 7.23903 19.6153 7.05622 19.763C7.05013 19.7681 7.03841 19.778 7.03278 19.7826C7.02669 19.7878 7.01497 19.7976 7.00888 19.8023C6.74216 20.0212 6.52841 20.2983 6.24856 20.5022C5.96684 20.7815 5.64903 21.0215 5.38137 21.3159C4.98575 21.6412 4.64356 22.0251 4.23575 22.3369C4.337 22.1161 4.47106 21.9136 4.58872 21.7022C5.37341 20.3442 6.15716 18.9862 6.94185 17.6283Z" fill="#296AD9"/>
<path d="M4.21507 22.3668C4.22023 22.3593 4.23054 22.3443 4.2357 22.3368L4.23429 22.3673L4.21507 22.3668Z" fill="#296AD9"/>
<path d="M15.6749 15.1618C17.1168 15.1679 18.5587 15.1637 20.001 15.1632C21.3182 15.1562 22.6368 15.181 23.9535 15.151L23.9812 15.1491L23.9999 15.1543V15.158C22.6096 17.5613 21.2235 19.9674 19.8332 22.3711C14.6334 22.3697 9.43352 22.3758 4.23415 22.3674L4.23555 22.3369C4.64336 22.0252 4.98555 21.6413 5.38118 21.316C5.64883 21.0216 5.96665 20.7816 6.24837 20.5022C6.52821 20.2983 6.74196 20.0213 7.00868 19.8024C7.01477 19.7977 7.02649 19.7879 7.03258 19.7827C7.03821 19.778 7.04993 19.7682 7.05602 19.763C7.23883 19.6154 7.38133 19.4255 7.56743 19.2816C7.57352 19.2765 7.58477 19.2671 7.59087 19.2619C7.60352 19.2521 7.62836 19.2315 7.64102 19.2216C7.64711 19.216 7.65883 19.2057 7.66493 19.2005C7.90118 18.998 8.09477 18.7496 8.34743 18.5663C8.57712 18.3577 8.78337 18.1238 9.02993 17.9344C9.35899 17.5908 9.7354 17.2997 10.0616 16.9543C10.3438 16.7537 10.5506 16.4696 10.8285 16.2647C11.0268 16.103 11.1796 15.8921 11.3873 15.7407C11.6109 15.5766 11.7665 15.3329 11.9999 15.1824C13.2238 15.1515 14.451 15.2012 15.6749 15.1618Z" fill="#2A71E9"/>
<path d="M7.6413 19.2216C7.64739 19.2159 7.65911 19.2056 7.6652 19.2005C7.65911 19.2056 7.64739 19.2159 7.6413 19.2216Z" fill="#286EE6"/>
<path d="M7.59099 19.2618C7.60364 19.252 7.62849 19.2313 7.64114 19.2215C7.62849 19.2313 7.60364 19.252 7.59099 19.2618Z" fill="#286EE6"/>
<path d="M7.56755 19.2815C7.57364 19.2764 7.58489 19.267 7.59099 19.2618C7.58489 19.267 7.57364 19.2764 7.56755 19.2815Z" fill="#286EE6"/>
<path d="M7.03285 19.7827C7.03848 19.778 7.0502 19.7681 7.05629 19.763C7.0502 19.7681 7.03848 19.778 7.03285 19.7827Z" fill="#286EE6"/>
<path d="M7.00873 19.8023C7.01482 19.7976 7.02654 19.7878 7.03263 19.7826C7.02654 19.7878 7.01482 19.7976 7.00873 19.8023Z" fill="#286EE6"/>
</svg>
