<svg width="731" height="84" viewBox="0 0 731 84" fill="none" xmlns="http://www.w3.org/2000/svg">
<path d="M46.2471 2.58575L46.0325 3.3901H38.6287L27.0937 46.4495L15.6124 3.3901H8.20859L7.99399 2.58575V3.3901H0V81.6799H12.0715V33.8481L21.8359 70.2582H32.4052L42.1696 33.8481V81.6799H54.2411V3.3901H46.2471V2.58575Z" fill="#F05361"/>
<path d="M98.9323 5.37499C95.4986 2.31847 90.4018 0.763397 83.91 0.763397C77.4182 0.763397 72.3751 2.31847 68.995 5.32137C65.5614 8.37789 63.7909 12.6677 63.7909 17.6547V65.4329C63.7909 71.4924 65.5614 75.8358 69.156 78.9996C72.5897 81.9489 77.6328 83.4503 84.1246 83.4503C90.6164 83.4503 95.6596 81.9489 99.0396 78.946C102.473 75.8358 104.244 71.4924 104.244 65.9692V57.8721H92.4405V65.9692C92.4405 69.1329 91.4748 72.7257 84.0173 72.7257C76.5598 72.7257 75.5941 69.1329 75.5941 65.9692V45.0025H104.244V18.1909C104.244 12.7214 102.42 8.37789 98.9323 5.37499ZM75.5941 34.3315V18.2446C75.5941 15.0808 76.5598 11.488 84.0173 11.488C91.4748 11.488 92.4405 15.0808 92.4405 18.2446V34.3315H75.5941Z" fill="#FBB85D"/>
<path d="M112.023 3.33678V14.3295H126.831V81.6802H138.956V14.3295H153.817V3.33678H112.023Z" fill="#00B2BB"/>
<path d="M112.023 3.33678V14.3295H126.831V81.6802H138.956V14.3295H153.817V3.33678H112.023Z" fill="black" fill-opacity="0.2"/>
<path d="M170.008 80.5611H191.444V68.4176H181.324V15.7959H191.444V3.65247H170.008V80.5611Z" fill="#FBB85D"/>
<path d="M244.666 24.5051V53.8082H237.54V35.4938L231.228 53.8082H225.12L218.809 35.4938V53.8082H211.683V24.5051H220.438L228.378 44.8545L236.115 24.5051H244.666Z" fill="#575757"/>
<path d="M272.966 53.8072H265.84V49.5339C265.229 50.9583 264.211 51.9758 262.786 52.7898C261.361 53.6037 259.936 54.0107 258.103 54.0107C255.457 54.0107 253.217 53.1968 251.792 51.3653C250.163 49.5339 249.349 47.092 249.349 44.0396V30.4055H256.475V43.0221C256.475 44.6501 256.882 45.871 257.696 46.685C258.511 47.4989 259.529 47.9059 260.954 47.9059C262.379 47.9059 263.601 47.499 264.415 46.4815C265.229 45.464 265.637 44.243 265.637 42.6151V30.202H272.966V53.8072Z" fill="#575757"/>
<path d="M273.984 58.6921H275.816C276.631 58.6921 277.038 58.4886 277.445 58.2851C277.852 57.8781 277.852 57.4711 277.852 56.6571V30.4064H285.182V56.4536C285.182 61.9479 282.332 64.7969 276.834 64.7969H274.188V58.6921H273.984ZM278.463 26.5401C277.649 25.9296 277.242 24.9121 277.242 23.8946C277.242 22.8772 277.649 21.8597 278.463 21.2492C279.278 20.6387 280.296 20.2318 281.517 20.2318C282.739 20.2318 283.757 20.6387 284.571 21.2492C285.386 21.8597 285.793 22.8772 285.793 23.8946C285.793 24.9121 285.386 25.9296 284.571 26.5401C283.757 27.1506 282.739 27.5575 281.517 27.5575C280.296 27.5575 279.074 27.1506 278.463 26.5401Z" fill="#575757"/>
<path d="M311.853 43.4302H295.565C295.565 45.2617 296.176 46.4826 296.991 47.2966C297.805 48.1106 298.823 48.5176 300.045 48.5176C301.063 48.5176 302.081 48.3141 302.691 47.7036C303.302 47.0931 303.913 46.4826 304.117 45.6687H311.65C311.243 47.2966 310.632 48.7211 309.614 50.1455C308.596 51.3665 307.171 52.384 305.745 53.1979C304.117 54.0119 302.284 54.2154 300.452 54.2154C298.212 54.2154 296.176 53.8084 294.344 52.7909C292.512 51.7735 291.086 50.349 290.272 48.7211C289.254 46.8896 288.847 44.8547 288.847 42.4128C288.847 39.9709 289.254 37.9359 290.272 36.1045C291.29 34.273 292.715 32.8486 294.344 32.0346C295.973 31.2206 298.212 30.6102 300.452 30.6102C302.691 30.6102 304.727 31.0171 306.56 32.0346C308.392 33.0521 309.614 34.273 310.632 36.1045C311.65 37.7324 312.057 39.7674 312.057 42.0058C312.057 42.0058 312.057 42.6163 311.853 43.4302ZM303.709 36.9185C302.895 36.1045 301.877 35.6975 300.452 35.6975C299.23 35.6975 298.009 36.1045 297.194 36.9185C296.38 37.7324 295.769 38.7499 295.769 40.3778H304.931C304.931 38.9534 304.524 37.7324 303.709 36.9185Z" fill="#575757"/>
<path d="M326.513 31.423C327.938 30.609 329.363 30.202 330.992 30.202V37.9348H328.956C327.123 37.9348 325.495 38.3418 324.477 39.1557C323.459 39.9697 322.848 41.3942 322.848 43.2256V53.8073H315.722V30.4055H322.848V34.8824C323.866 33.4579 325.087 32.2369 326.513 31.423Z" fill="#575757"/>
<path d="M356.034 43.4302H339.746C339.746 45.2617 340.357 46.4826 341.172 47.2966C341.986 48.1106 343.004 48.5176 344.226 48.5176C345.244 48.5176 346.262 48.3141 346.872 47.7036C347.483 47.0931 348.094 46.4826 348.298 45.6687H355.831C355.423 47.2966 354.813 48.7211 353.795 50.1455C352.777 51.3665 351.352 52.384 349.926 53.1979C348.298 54.0119 346.465 54.2154 344.633 54.2154C342.393 54.2154 340.357 53.8084 338.525 52.7909C336.692 51.7735 335.267 50.349 334.453 48.7211C333.435 46.8896 333.028 44.8547 333.028 42.4128C333.028 39.9709 333.435 37.9359 334.453 36.1045C335.471 34.273 336.896 32.8486 338.525 32.0346C340.357 31.0171 342.393 30.6102 344.633 30.6102C346.872 30.6102 348.908 31.0171 350.741 32.0346C352.573 33.0521 353.795 34.273 354.813 36.1045C355.831 37.7324 356.238 39.7674 356.238 42.0058C356.238 42.0058 356.238 42.6163 356.034 43.4302ZM347.687 36.9185C346.872 36.1045 345.854 35.6975 344.429 35.6975C343.208 35.6975 341.986 36.1045 341.172 36.9185C340.357 37.7324 339.746 38.7499 339.746 40.3778H348.908C349.112 38.9534 348.705 37.7324 347.687 36.9185Z" fill="#575757"/>
<path d="M375.58 32.4414C377.412 33.8659 378.43 35.9008 378.838 38.3428H372.119C371.915 37.3253 371.508 36.7148 370.897 36.1043C370.286 35.4938 369.268 35.2904 368.25 35.2904C367.436 35.2904 366.825 35.4939 366.418 35.9008C366.011 36.3078 365.807 36.7148 365.807 37.3253C365.807 38.1393 366.214 38.5463 367.029 38.9532C367.843 39.3602 369.065 39.7672 370.694 39.9707C372.526 40.3777 373.951 40.7847 375.173 41.1917C376.394 41.5986 377.209 42.4126 378.227 43.2266C379.041 44.2441 379.448 45.465 379.448 47.093C379.448 48.5174 379.041 49.5349 378.43 50.5524C377.616 51.5698 376.598 52.3838 375.376 52.9943C373.951 53.6048 372.322 53.8083 370.49 53.8083C367.436 53.8083 364.789 53.1978 362.957 51.7733C361.124 50.3489 359.903 48.3139 359.496 45.872H366.418C366.622 46.8895 367.029 47.7035 367.64 48.1105C368.454 48.7209 369.268 48.9244 370.49 48.9244C371.304 48.9244 371.915 48.7209 372.322 48.3139C372.73 47.9069 372.933 47.5 372.933 46.8895C372.933 46.0755 372.526 45.465 371.712 45.0581C370.897 44.6511 369.676 44.2441 368.047 44.0406C366.418 43.6336 364.993 43.2266 363.771 42.8196C362.753 42.4126 361.735 41.8021 360.921 40.7847C360.106 39.7672 359.699 38.5463 359.699 36.9183C359.699 34.8834 360.514 33.0519 362.142 31.831C363.771 30.61 366.011 29.796 368.861 29.796C371.508 30.203 373.748 30.8135 375.58 32.4414Z" fill="#575757"/>
<path d="M413.449 43.4302H397.162C397.162 45.2617 397.772 46.4826 398.587 47.2966C399.401 48.1106 400.419 48.5176 401.641 48.5176C402.659 48.5176 403.677 48.3141 404.287 47.7036C404.898 47.0931 405.509 46.4826 405.713 45.6687H413.246C412.839 47.2966 412.228 48.7211 411.21 50.1455C410.192 51.3665 408.767 52.384 407.341 53.1979C405.713 54.0119 403.88 54.2154 402.048 54.2154C399.808 54.2154 397.772 53.8084 395.94 52.7909C394.108 51.7735 392.682 50.349 391.868 48.7211C390.85 46.8896 390.443 44.8547 390.443 42.4128C390.443 39.9709 390.85 37.9359 391.868 36.1045C392.886 34.273 394.311 32.8486 395.94 32.0346C397.772 31.0171 399.808 30.6102 402.048 30.6102C404.287 30.6102 406.323 31.0171 408.156 32.0346C409.988 33.0521 411.21 34.273 412.228 36.1045C413.246 37.7324 413.653 39.7674 413.653 42.0058C413.653 42.0058 413.653 42.6163 413.449 43.4302ZM405.305 36.9185C404.491 36.1045 403.473 35.6975 402.048 35.6975C400.826 35.6975 399.605 36.1045 398.79 36.9185C397.976 37.7324 397.365 38.7499 397.365 40.3778H406.527C406.527 38.9534 406.12 37.7324 405.305 36.9185Z" fill="#575757"/>
<path d="M438.695 32.8485C440.324 34.6799 441.139 37.1218 441.139 40.1742V53.8083H433.809V41.1917C433.809 39.5637 433.402 38.3428 432.587 37.5288C431.773 36.7148 430.755 36.3079 429.33 36.3079C427.905 36.3079 426.683 36.7148 425.869 37.7323C425.054 38.7498 424.647 39.9707 424.647 41.5987V54.0118H417.521V30.61H424.647V34.8834C425.258 33.459 426.276 32.4415 427.701 31.6275C429.126 30.8135 430.552 30.4065 432.384 30.4065C434.827 30.203 437.067 31.017 438.695 32.8485Z" fill="#575757"/>
<path d="M475.343 24.3015V29.9993H467.403V53.808H460.277V29.9993H452.133V24.3015H475.343Z" fill="#575757"/>
<path d="M500.386 43.4302H484.098C484.098 45.2617 484.709 46.4826 485.523 47.2966C486.338 48.1106 487.356 48.5176 488.577 48.5176C489.595 48.5176 490.613 48.3141 491.224 47.7036C491.835 47.0931 492.446 46.4826 492.649 45.6687H500.183C499.775 47.2966 499.165 48.7211 498.147 50.1455C497.129 51.3665 495.703 52.384 494.278 53.1979C492.649 54.0119 490.817 54.2154 488.985 54.2154C486.745 54.2154 484.709 53.8084 482.877 52.7909C481.044 51.7735 479.619 50.349 478.805 48.7211C477.787 46.8896 477.379 44.8547 477.379 42.4128C477.379 39.9709 477.787 37.9359 478.805 36.1045C479.823 34.273 481.248 32.8486 482.877 32.0346C484.709 31.0171 486.745 30.6102 488.985 30.6102C491.224 30.6102 493.26 31.0171 495.093 32.0346C496.925 33.0521 498.147 34.273 499.165 36.1045C500.183 37.7324 500.59 39.7674 500.59 42.0058C500.59 42.0058 500.386 42.6163 500.386 43.4302ZM492.039 36.9185C491.224 36.1045 490.206 35.6975 488.781 35.6975C487.559 35.6975 486.338 36.1045 485.523 36.9185C484.709 37.7324 484.098 38.7499 484.098 40.3778H493.26C493.26 38.9534 492.853 37.7324 492.039 36.9185Z" fill="#575757"/>
<path d="M522.375 32.6439C524.411 34.2719 525.632 36.5103 526.243 39.5627H518.71C518.506 38.5452 518.099 37.7313 517.285 37.1208C516.674 36.5103 515.656 36.3068 514.638 36.3068C513.416 36.3068 512.398 36.7138 511.584 37.7313C510.769 38.7487 510.362 40.1732 510.362 42.0047C510.362 43.8361 510.769 45.2605 511.584 46.278C512.398 47.2955 513.416 47.7024 514.638 47.7024C515.656 47.7024 516.674 47.499 517.285 46.8885C517.895 46.278 518.506 45.464 518.71 44.4466H526.243C525.632 47.2955 524.411 49.5339 522.375 51.3653C520.339 52.9933 517.895 53.8073 514.841 53.8073C512.602 53.8073 510.566 53.4003 508.733 52.3828C506.901 51.3653 505.476 49.9409 504.661 48.3129C503.644 46.4815 503.236 44.4466 503.236 42.0047C503.236 39.5627 503.644 37.5278 504.661 35.6963C505.679 33.8649 507.105 32.4404 508.733 31.6265C510.566 30.609 512.602 30.202 514.841 30.202C517.692 30.202 520.339 31.016 522.375 32.6439Z" fill="#575757"/>
<path d="M551.082 32.8485C552.711 34.6799 553.525 37.1218 553.525 40.1742V53.8083H546.399V41.1917C546.399 39.5637 545.992 38.3428 545.177 37.5288C544.363 36.7148 543.345 36.3079 541.92 36.3079C540.495 36.3079 539.273 36.7148 538.459 37.7323C537.644 38.7498 537.237 39.9707 537.237 41.5987V54.0118H530.111V30.61H537.237V34.8834C537.848 33.459 538.866 32.4415 540.291 31.6275C541.716 30.8135 543.142 30.4065 544.974 30.4065C547.417 30.203 549.453 31.017 551.082 32.8485Z" fill="#575757"/>
<path d="M575.31 31.6265C577.143 32.6439 578.568 34.0684 579.586 35.6963C580.604 37.5278 581.215 39.5627 581.215 42.0047C581.215 44.4466 580.604 46.4815 579.586 48.3129C578.568 50.1444 577.143 51.5688 575.31 52.3828C573.478 53.4003 571.442 53.8073 568.999 53.8073C566.759 53.8073 564.52 53.4003 562.687 52.3828C560.855 51.3653 559.43 49.9409 558.412 48.3129C557.394 46.4815 556.783 44.4466 556.783 42.0047C556.783 39.5627 557.394 37.5278 558.412 35.6963C559.43 33.8649 560.855 32.4404 562.687 31.6265C564.52 30.8125 566.556 30.202 568.999 30.202C571.442 30.202 573.478 30.609 575.31 31.6265ZM565.741 37.7313C564.723 38.7487 564.316 40.1732 564.316 42.0047C564.316 43.8361 564.723 45.2605 565.741 46.278C566.759 47.2955 567.777 47.7024 569.203 47.7024C570.628 47.7024 571.646 47.2955 572.664 46.278C573.682 45.2605 574.089 43.8361 574.089 42.0047C574.089 40.1732 573.682 38.7487 572.664 37.7313C571.646 36.7138 570.628 36.3068 569.203 36.3068C567.777 36.3068 566.556 36.9173 565.741 37.7313Z" fill="#575757"/>
<path d="M592.005 22.8768V53.8078H584.879V22.8768H592.005Z" fill="#575757"/>
<path d="M614.198 31.6265C616.03 32.6439 617.455 34.0684 618.473 35.6963C619.491 37.5278 620.102 39.5627 620.102 42.0047C620.102 44.4466 619.491 46.4815 618.473 48.3129C617.455 50.1444 616.03 51.5688 614.198 52.3828C612.365 53.4003 610.329 53.8073 607.886 53.8073C605.647 53.8073 603.407 53.4003 601.575 52.3828C599.742 51.3653 598.317 49.9409 597.299 48.3129C596.281 46.4815 595.67 44.4466 595.67 42.0047C595.67 39.5627 596.281 37.5278 597.299 35.6963C598.317 33.8649 599.742 32.4404 601.575 31.6265C603.407 30.8125 605.443 30.202 607.886 30.202C610.329 30.202 612.365 30.609 614.198 31.6265ZM604.425 37.7313C603.407 38.7487 603 40.1732 603 42.0047C603 43.8361 603.407 45.2605 604.425 46.278C605.443 47.2955 606.461 47.7024 607.886 47.7024C609.311 47.7024 610.329 47.2955 611.347 46.278C612.365 45.2605 612.773 43.8361 612.773 42.0047C612.773 40.1732 612.365 38.7487 611.347 37.7313C610.329 36.7138 609.311 36.3068 607.886 36.3068C606.665 36.3068 605.443 36.9173 604.425 37.7313Z" fill="#575757"/>
<path d="M637.204 31.4231C638.426 32.2371 639.444 33.2546 640.055 34.679V30.4056H647.181V53.6039C647.181 55.8424 646.773 57.6738 645.959 59.5052C645.145 61.3367 643.923 62.5576 642.091 63.5751C640.462 64.5926 638.222 65.2031 635.576 65.2031C632.114 65.2031 629.264 64.3891 627.228 62.7611C625.192 61.1332 623.767 58.8948 623.36 56.0458H630.486C630.689 57.0633 631.3 57.6738 631.911 58.2843C632.725 58.8948 633.743 59.0982 634.965 59.0982C636.39 59.0982 637.611 58.6912 638.629 57.8773C639.444 57.0633 640.055 55.6388 640.055 53.8074V49.7375C639.444 51.162 638.426 52.1795 637.204 52.9934C635.983 53.8074 634.354 54.2144 632.522 54.2144C630.689 54.2144 628.857 53.8074 627.432 52.7899C626.006 51.7725 624.785 50.348 623.767 48.7201C622.952 46.8886 622.545 44.8537 622.545 42.4118C622.545 39.9699 622.952 37.9349 623.767 36.1035C624.581 34.272 625.803 32.8476 627.432 32.0336C629.06 31.2196 630.689 30.6092 632.522 30.6092C634.354 30.2022 635.983 30.6091 637.204 31.4231ZM631.3 37.9349C630.282 38.9524 629.875 40.3768 629.875 42.2083C629.875 44.0397 630.282 45.4642 631.3 46.4817C632.318 47.4991 633.54 47.9061 634.965 47.9061C636.39 47.9061 637.611 47.2956 638.629 46.2781C639.647 45.2607 640.055 43.8362 640.055 42.2083C640.055 40.3768 639.647 39.1559 638.629 38.1384C637.611 37.1209 636.39 36.5105 634.965 36.5105C633.336 36.5105 632.114 36.9175 631.3 37.9349Z" fill="#575757"/>
<path d="M662.451 24.5048L652.271 28.7782V23.8943L662.451 19.0105V24.5048ZM660.007 30.4061V53.8078H652.881V30.4061H660.007Z" fill="#575757"/>
<path d="M679.349 31.424C680.571 32.238 681.589 33.2555 682.2 34.68V30.4066H689.326V53.8083H682.2V49.535C681.589 50.9594 680.571 51.9769 679.349 52.7909C678.128 53.6048 676.499 54.0118 674.667 54.0118C672.834 54.0118 671.002 53.6049 669.577 52.5874C668.151 51.5699 666.93 50.1455 665.912 48.5175C665.097 46.6861 664.69 44.6511 664.69 42.2092C664.69 39.7673 665.097 37.7324 665.912 35.9009C666.726 34.0695 667.948 32.645 669.577 31.8311C671.002 30.8136 672.834 30.4066 674.667 30.4066C676.499 30.2031 677.924 30.6101 679.349 31.424ZM673.241 37.9359C672.223 38.9533 671.816 40.3778 671.816 42.2092C671.816 44.0407 672.223 45.4651 673.241 46.4826C674.259 47.5001 675.481 47.907 676.906 47.907C678.331 47.907 679.553 47.2965 680.571 46.2791C681.589 45.2616 681.996 43.8372 681.996 42.2092C681.996 40.3778 681.589 39.1568 680.571 38.1393C679.553 37.1219 678.331 36.5114 676.906 36.5114C675.481 36.5114 674.259 36.9184 673.241 37.9359Z" fill="#575757"/>
<path d="M731 80.561H709.565V68.4176H719.684V15.7959H709.565V3.65245H731V80.561Z" fill="#FBB85D"/>
</svg>
