<svg width="163" height="180" viewBox="0 0 163 180" fill="none" xmlns="http://www.w3.org/2000/svg">
<g id="Group 1">
<path id="recurso" d="M120.252 124.752C120.252 154.393 88.3606 178.422 58.7195 178.422C29.0784 178.422 5.04956 154.393 5.04956 124.752C5.04956 95.1109 15.6677 68.4128 45.3088 68.4128C74.9499 68.4128 120.252 95.1109 120.252 124.752Z" fill="#FFCB3C" fill-opacity="0.7"/>
<g id="recurso_2">
<mask id="mask0_2506_99" style="mask-type:alpha" maskUnits="userSpaceOnUse" x="0" y="0" width="163" height="180">
<path id="Ellipse 4" d="M130.696 114.477C130.696 150.534 101.467 179.763 65.4097 179.763C29.3529 179.763 0.123047 150.534 0.123047 114.477C0.123047 78.4199 114.886 0.549652 150.943 0.549652C186.999 0.549652 130.696 78.4199 130.696 114.477Z" fill="#FFDB76"/>
</mask>
<g mask="url(#mask0_2506_99)">
<g id="arrow">
<g id="Group">
<g id="Group_2">
<path id="Vector" fill-rule="evenodd" clip-rule="evenodd" d="M57.6321 105.736C53.5964 104.043 49.0369 103.706 44.0111 105.177C26.8494 110.199 19.8218 123.573 18.882 139.504C17.5654 161.896 28.7363 189.461 38.7413 203.157C39.9108 204.757 42.1564 205.105 43.7564 203.939C45.3527 202.77 45.7043 200.524 44.5348 198.924C35.258 186.225 24.8225 160.69 26.0458 139.927C26.7991 127.085 32.1945 116.111 46.0272 112.061C49.019 111.186 51.7417 111.308 54.1918 112.169C53.3954 113.765 52.6349 115.365 51.9138 116.965C49.0332 123.372 44.7285 141.161 46.3356 154.241C47.6091 164.59 52.4985 172.012 62.5861 171.739C68.3616 171.585 72.6235 168.095 75.1812 162.373C78.3345 155.317 78.765 144.522 76.548 134.173C74.7077 125.567 71.0557 117.309 65.933 111.756C65.2156 110.978 64.4694 110.249 63.6982 109.575C80.5155 79.7609 110.868 52.0955 142.031 40.3112C143.882 39.6117 144.814 37.5418 144.115 35.6871C143.415 33.8361 141.342 32.9034 139.491 33.603C106.986 45.8931 75.3032 74.6596 57.6321 105.736ZM60.2186 116.165C59.6087 117.41 59.0203 118.658 58.4607 119.906C55.8742 125.657 52.0144 141.624 53.4565 153.365C54.2206 159.578 56.3406 164.73 62.396 164.568C65.3663 164.489 67.3177 162.387 68.6307 159.446C70.3741 155.546 70.9948 150.259 70.7186 144.63C70.2846 135.899 67.6479 126.342 63.0059 119.584C62.1486 118.335 61.2194 117.184 60.2186 116.165Z" fill="#35312B"/>
</g>
<g id="Group_3">
<path id="Vector_2" fill-rule="evenodd" clip-rule="evenodd" d="M118.01 85.1802C120.808 68.8615 131.509 51.4989 143.006 39.467C144.373 38.0357 144.323 35.765 142.892 34.3946C141.46 33.0279 139.186 33.0781 137.819 34.5094C125.396 47.5134 113.96 66.336 110.939 83.9676C110.606 85.9191 111.919 87.7737 113.87 88.1074C115.822 88.441 117.676 87.1316 118.01 85.1802Z" fill="#35312B"/>
</g>
</g>
<g id="Group_4">
<path id="Vector_3" fill-rule="evenodd" clip-rule="evenodd" d="M138.128 33.8242C126.308 40.5719 108.177 41.4544 94.9616 38.0321C93.0424 37.5371 91.0837 38.6922 90.5887 40.6079C90.0936 42.5235 91.2452 44.4821 93.1644 44.9808C108.023 48.8228 128.395 47.6426 141.686 40.0554C143.405 39.0761 144.004 36.8806 143.021 35.1623C142.038 33.444 139.846 32.8449 138.128 33.8242Z" fill="#35312B"/>
</g>
</g>
</g>
</g>
</g>
</svg>
