<svg width="48" height="49" viewBox="0 0 48 49" fill="none" xmlns="http://www.w3.org/2000/svg">
<g id="seta">
<g id="Group">
<path id="Vector" d="M23.9461 18.9315C24.0213 18.854 24.0212 18.7307 23.946 18.6531L21.4823 16.1124C21.4037 16.0313 21.2737 16.0313 21.1951 16.1123L13.243 24.3111C13.1677 24.3887 13.1677 24.512 13.2429 24.5896L21.1931 32.7882C21.2717 32.8692 21.4018 32.8692 21.4803 32.7881L23.9442 30.2455C24.0193 30.1679 24.0193 30.0447 23.9442 29.9671L20.8645 26.7895C20.7416 26.6626 20.8315 26.4503 21.0081 26.4503H34.953C35.0635 26.4503 35.153 26.3608 35.153 26.2503V22.6503C35.153 22.5399 35.0635 22.4503 34.953 22.4503H21.0081C20.8315 22.4503 20.7416 22.238 20.8645 22.1111L23.9461 18.9315Z" fill="#0089E4"/>
<path id="Vector_2" fill-rule="evenodd" clip-rule="evenodd" d="M9.09736 8.89432C0.765724 17.4863 0.765724 31.4143 9.09736 40.0063C17.429 48.5983 30.9349 48.5983 39.2666 40.0063C47.5982 31.4143 47.5982 17.4863 39.2666 8.89432C30.9349 0.30232 17.429 0.30232 9.09736 8.89432ZM11.8397 11.7223C8.56628 15.098 6.72731 19.6764 6.72731 24.4503C6.72731 29.2242 8.56628 33.8026 11.8397 37.1783C15.113 40.554 19.5527 42.4504 24.182 42.4504C28.8112 42.4504 33.2509 40.554 36.5243 37.1783C39.7977 33.8026 41.6366 29.2242 41.6366 24.4503C41.6366 19.6764 39.7977 15.098 36.5243 11.7223C33.2509 8.34664 28.8112 6.45021 24.182 6.45021C19.5527 6.45021 15.113 8.34664 11.8397 11.7223Z" fill="#0089E4"/>
</g>
</g>
</svg>
